<svg id="Layer_1" data-name="Layer 1" xmlns="http://www.w3.org/2000/svg" viewBox="0 0 576 576"><defs><style>.cls-1{fill:#663a32;}.cls-2{fill:#ec1e27;}.cls-3{fill:#5c3931;}.cls-4{fill:#801518;}.cls-5{fill:#2f1b16;}.cls-6{fill:#dcdbdb;}.cls-7{fill:#fff;}.cls-8{fill:#39231e;}.cls-9{fill:#ffdeb7;}.cls-10{fill:#959187;}.cls-11{fill:#d8cd85;}.cls-12{fill:#d1c681;}</style></defs><path class="cls-1" d="M221.45,353.53c2.83,6.07,7.66,16.12,17.89,25.22,12.27,10.92,26,14.74,33.48,17,6.72,2,16.66,4.86,29.35,3.67,4.83-.45,5.59-1.07,26.14-6.88,17.41-4.92-5.41-9.76-6.42-15.59-.78-4.49,16.62-5.49,28.43-20.64,6.72-8.62,4.78-13,14-29.78a152.61,152.61,0,0,1,13.07-19.75C401,274.66,415.64,198.07,404,193.39c-4.27-1.72-10.24,7-12.89,5.13-5.68-4.05,22.18-44.12,13.76-52.28-3.78-3.66-11.32,2.55-28.89,7.34-16.92,4.62-34.81,1.71-70.62,2.75-10.59.31-5.78-.76-33.48-1.83-36-1.4-39.06,1-60.08-.92-29.66-2.72-34-8.18-40.36-3.67-3.65,2.62-11.3,11,7.34,88.05C178.8,238,190.89,287.92,221.45,353.53Z"/><path class="cls-2" d="M521.86,422.32C546.38,433.47,563.31,451,569,478.13c.21,1-.3,2.29,1.2,2.69v12.12a635.85,635.85,0,0,1-121.3,41.24c-43.55,9.9-87.68,15-132.25,16.9a14.62,14.62,0,0,1-2.17-.21c.25-2,1.94-3,3.21-4.3,5.21-5.13,10.48-10.19,15.94-15.09,10.48-9.41,20.13-19.76,30.64-29.14,7.67-6.83,14.55-14.47,22.37-21.07,5.85-4.93,6-5,2.17-11.53s-7.41-13.46-11.14-20.17c-1.36-2.43-1.52-3.78,2-4.3,7.55-1.15,15-2.81,22.54-4.11,3.31-.56,5.72-1.19,4.07-5.55-1.08-2.86-1.42-6-2-9.06-2.34-12.34-5.77-24.46-7.1-37l10,2.37c0,2,0,4,0,6.05,0,12.38,2.59,16.33,14.53,19.87,25,7.41,50.57,12.73,76,18.63,11.47,2.66,18.4-1.54,23.07-12.46A8.74,8.74,0,0,1,521.86,422.32Zm-91.41,87.15c7.69,0,15.39.08,23.08,0,11.15-.14,9.36,1.83,9.81-10,.18-4.53-1.46-5.53-5.66-5.48-16.49.21-33,0-49.47.12-11.49.08-9.66-2-10.07,10.28-.14,4.23,1.37,5.31,5.37,5.19C412.48,509.29,421.47,509.47,430.45,509.47Z"/><path class="cls-3" d="M347.91,383.17c-2,3.59-6,4.67-9.13,6.65A215.66,215.66,0,0,1,292.31,412c-2.11.7-4,1.2-6.36.42a228.59,228.59,0,0,1-70.41-38.63c-2.49-2-3.17-4.07-3.12-7,.13-9.17-.76-18.44.26-27.51,1.11-9.85-3.11-16.57-9.36-23.15-4.65-4.89-8.5-10.53-12.93-15.63-9-10.3-10.69-23-11.91-35.77-.32-3.42-1.18-5.59-4.14-7.61C161,248,154,234.81,151,219.37c-1.92-10,5.29-22.41,18.55-24.53,10.53-.27,13.7,7.28,16.24,15.4a26,26,0,0,1,.47,4.36c.38,2.75,2,4.54,4.74,4.34,3-.23,2.94-2.79,2.72-5.05-.55-5.65-1.52-11.28-1.66-16.94-.2-8.32.3-16.83,6.88-22.94a14.2,14.2,0,0,0,5-11c28.79,9.6,58.43,12.6,88.65,12.18,26.88-.38,53.26-3.21,78.64-12.61,2.1.09,2,1.67,2.18,3.13.17,2,.38,4.35,2,5.57,9.94,7.7,10.09,18.45,9.41,29.45-.29,4.75-1,9.47-1.41,14.21-.17,1.77.25,3.42,2.2,3.91a3.89,3.89,0,0,0,4.56-2.23A11.22,11.22,0,0,0,391,213c1.4-11,6.11-16.19,16.62-18.11,12.55,4.83,19.14,13.83,17.5,23.94a55.24,55.24,0,0,1-12.39,26.55c-2.77,3.37-5.12,7.29-9.2,9.3-5.9,2.9-6.59,8.53-6.69,13.81-.32,16.67-8.52,29.43-18.75,41.61-4.43,5.29-10.2,9.5-13.26,15.92-1.28,1-2.64,1.94-3.81,3.07-11,10.56-22.53,20.4-35.8,28s-27.29,12-42.51,10.55c-18.46-1.72-34-10.49-48.52-21.59-5.77-4.43-10.43-10.24-17.07-13.55a2.2,2.2,0,0,0-1.24-2.08,1.64,1.64,0,0,0-.19-.4c0-.06-.2-.05-.31-.07l.5.47c.3.91.66,1.27,1,2.28a43,43,0,0,0,3.6,7.33c7.94,11.9,16.55,23.12,27.77,32.3,21.36,17.49,45.21,24.44,72.61,19.31C330.25,389.86,338.8,385.73,347.91,383.17Z"/><path d="M161.49,131.75c-7.05-6.75-13.55-13.93-18-22.72-9-17.72-5.93-33.4,9.22-46.25s32.08-23.34,50.85-30.05C265.08,10.72,326,12,385.92,39.09c13.25,6,25.21,14.22,36.3,23.63,14.89,12.64,18,28.44,9.14,45.82-4.65,9.12-11.34,16.62-18.84,23.46a397.06,397.06,0,0,0-67.5-8.28c-28.59-1-57.19-1-85.78-.67-22.52.25-45.08.55-67.44,3.87C181.68,128.42,171.59,130.13,161.49,131.75ZM287.43,91a16.1,16.1,0,0,0,15.92-16.26c-.26-8.49-7.66-15.78-16-15.8a16,16,0,0,0-16,16.19A15.57,15.57,0,0,0,287.43,91Z"/><path class="cls-2" d="M169,392l10-2.43c-2,15.19-5.73,30-9,45-1,4.58-.23,6.19,4.52,6.69,7.05.75,14,2.16,21,3.42,3.09.55,5,1.64,2.73,5.4-4.29,7.23-8.17,14.71-12.24,22.08-1.3,2.36-2.25,4.43.42,6.77,11.84,10.36,22.9,21.59,34.59,32.1,8.29,7.46,15.86,15.66,24.42,22.86,5.94,5,11.91,10.27,16.18,17-17.24-.11-34.42-1.42-51.55-3.19A667,667,0,0,1,92.09,525,628.9,628.9,0,0,1,9.34,494.37c-2.91-1.31-3.64-2.85-3.47-5.77C7.39,462.4,20,442.93,41.75,428.92c4-2.57,8-5.23,12.53-6.71,5.49,13.35,13.08,17.13,27.35,13.68,5.13-1.25,10.3-2.3,15.42-3.6,18.87-4.8,38-8.44,56.64-14.24C166.15,414.17,169,409.93,169,397Zm-24,106.46c-1.26.74-2.57,1.41-3.76,2.25a15,15,0,0,0-6,15.89,15.7,15.7,0,0,0,13.28,11.44,15.32,15.32,0,0,0,14.81-8.4c4-7.92.79-15.78-8.66-21.24,3.9-3,7.81-6,11.69-9,1.88-1.46,3.67-2.92,3.63-5.74-.11-6.95-.09-13.9,0-20.86,0-2.8-1.18-3.92-3.95-3.91-10.61.07-21.22.12-31.83,0-3.29-.05-4,1.42-3.94,4.32.13,6.4.23,12.81,0,19.2-.14,3.54,1.12,5.7,4,7.64C138,492.57,141.38,495.65,144.94,498.48Z"/><path class="cls-2" d="M161.49,131.75c10.1-1.62,20.19-4.33,30.31-5.83,22.36-3.32,44.92-3.62,67.44-3.87,28.59-.31,57.19-.34,85.78.67,22.74.81,45.24,4.61,67.5,9.28.82,5-1.71,8.75-4.4,12.47-2.21-.2-4.43.59-6.65.38-30.36-2.48-60.71-5-91.18-5.81-45.77-1.19-91.36,1.78-136.9,5.77-1.9.28-3.79-.43-5.69-.14C163.07,141.59,161.52,137,161.49,131.75Z"/><path class="cls-4" d="M522.69,422.76a9.49,9.49,0,0,0-1.27,1.73c-4.73,11.08-11.77,15.33-23.4,12.63-25.77-6-51.69-11.37-77.07-18.89-12.12-3.59-14.75-7.6-14.75-20.16l0-6.14c22.09,5.26,44.21,10.37,66.24,15.85,14.34,3.56,29.08,5.63,42.84,11.37C517.83,420.21,520.57,420.85,522.69,422.76Zm-92.77-19c-2.77.26-4.47,1.91-4.29,4.63s1.87,4.49,4.74,4.24a4,4,0,0,0,4-4.37C434.35,405.41,432.85,403.91,429.92,403.78ZM494.58,423c-.31-2.76-1.95-4.46-4.67-4.26s-4.47,1.9-4.21,4.77a4,4,0,0,0,4.4,4C493,427.48,494.42,425.92,494.58,423Zm-34.51-12.28c-2.58.58-4.53,2.05-4.37,4.86a4.06,4.06,0,0,0,4.46,4c3,0,4.44-1.66,4.31-4.59C464.35,412.36,462.59,411.22,460.07,410.75Z"/><path class="cls-4" d="M170,392l0,4.94c0,13-3.84,18.21-16.3,22.09-18.61,5.8-37.77,9.44-56.64,14.24-5.12,1.3-10.29,2.35-15.42,3.6-14.27,3.45-22.86-1.33-28.35-14.68,10.9-6.23,24.09-8.47,36.09-11.34,25.83-6.17,51.63-12.48,77.45-18.71A25,25,0,0,1,170,392Zm-20.14,16c-.5-2.7-1.79-4.48-4.69-4.33s-4.25,2-4.1,4.69a4.08,4.08,0,0,0,4.3,4C148.16,412.41,149.43,410.51,149.82,408Zm-29.6,7c-.54-2.7-2-4.56-4.81-4.39a4.05,4.05,0,0,0-4,4.42c0,2.89,1.71,4.36,4.61,4.21C118.67,419.12,119.8,417.39,120.22,415ZM90.67,422.6c-.5-2.81-2.22-4.45-4.92-4.22a4,4,0,0,0-3.89,4.51A3.83,3.83,0,0,0,86.05,427C89,427,90.3,425.27,90.67,422.6Z"/><path class="cls-5" d="M401.48,143.85l6.64.62c2.26,15.36,1.11,30.68-.54,46-.18,1.64-.38,3.27-.56,4.91-10.51,1.92-15.23,7.07-16.63,18.11a11.21,11.21,0,0,1-.81,3.69,3.89,3.89,0,0,1-4.57,2.22c-1.94-.48-2.37-2.13-2.2-3.9.46-4.74,1.12-9.46,1.42-14.21.67-11,.53-21.75-9.42-29.45-1.57-1.22-1.78-3.53-2-5.57-.12-1.47-.07-3-2.18-3.13a83.19,83.19,0,0,0,17.78-8.21C393.34,152,399.14,149.88,401.48,143.85Z"/><path class="cls-5" d="M167.7,144.67l5.69-.86c-1.6,2-.35,3,1.27,4.3,8.6,7,18.87,10.82,28.72,15.45a14.19,14.19,0,0,1-5,11c-6.58,6.11-7.08,14.62-6.87,22.94.14,5.65,1.1,11.29,1.65,16.94.22,2.26.3,4.82-2.71,5.05-2.72.2-4.37-1.59-4.74-4.34a28.24,28.24,0,0,0-.47-4.36c-2.54-8.13-5.71-15.67-16.25-15.4C166.89,178.51,165.63,161.63,167.7,144.67Z"/><path class="cls-6" d="M309.06,508.2C306,492.14,303.17,476,299.76,460c-.95-4.49-.67-7.69,3.29-10.23a3.58,3.58,0,0,0,1.91-3.14c5,7.68,9.6,8.71,17.08,3.32,6.76-4.87,13.6-9.69,19.56-15.57,1-1,2-2.11,3.68-2.11-9.4,20.18-18.73,40.39-28.24,60.51C314.57,498,312.91,503.69,309.06,508.2Z"/><path class="cls-7" d="M364.28,366.6c-.91,3.17-3.4,8.13-6.89,10.07a28,28,0,0,0-5.39,3.88l-1.23,1c-1.3.92-2,1.17-3.41,2.15l-.46.71c-3.22,3.52-5.47,4-8.68,5.95-14.86,9-30,16.8-46.47,22.21a8.09,8.09,0,0,1-5.9.21,226.89,226.89,0,0,1-70.37-37.95c-2.49-2-3.64-3.91-3.6-6.85,0-.11,0-.53,0-.64-1.5-.22-.44,4.15-1.91,3.86-.83,5.59-3.94,4.75-5.63,10.32,0,0-.8,1.5-.8,1.5,2.87-1.21,3.78,2.24,4.54,3.87,7.2,15.4,14.33,30.45,21.91,45.27a17.92,17.92,0,0,0,.81,1.78c5-.37,7.37,4.25,10.5,6.65,3.87,3,7.86,5.88,11.71,8.92,7.53,5.94,10.41,5.81,17.73-.13l17.62-34.1c6.54,10.62,10.25,22.13,17.12,31.88,5,7.67,9.6,8.7,17.08,3.31,6.76-4.87,13.6-9.68,19.56-15.57,1-1,2-2.11,3.68-2.11v0l.73-1.05c7.2-15.18,14.47-30.33,21.56-45.56a6.4,6.4,0,0,1,2.53-3.19c.69-.78,1.21-.38,1.4-.95"/><path class="cls-4" d="M398.1,389.56c1.33,12.53,4.76,24.65,7.1,37,.57,3,.91,6.2,2,9.06,1.65,4.36-1.76,6-5.07,6.55-7.53,1.3-15,3-22.54,4.11-3.48.52-2.32.87-1,3.3,3.73,6.71,7.25,13.55,11.14,20.17s2.68,7.6-3.17,12.53c-7.82,6.6-14.7,14.24-22.37,21.07-10.51,9.38-20.16,19.73-30.64,29.14-5.46,4.9-10.73,10-15.94,15.09-1.27,1.25-2.06,2-3.21,3.3-8.07.93-17.16.51-25.25.33,3.72-8.13,7.64-16.17,11.09-24.4,2.6-6.2,6.5-11.86,7.79-18.6,3.85-4.51,6.51-10.17,9-15.39,9.51-20.12,18.84-40.33,28.24-60.51v0c.24-.35.49-.7.73-1.06,7.2-15.17,14.47-30.32,21.57-45.55,1.43-3.08,2.75-4.5,6.52-3.17C381.66,385.16,390.43,387.24,398.1,389.56Z"/><path d="M285.83,551.2c-4.59-11.14-10-21.89-15.28-32.7-1.87-3.8-3.24-7.84-4.83-11.78,3-15.55,5.61-31.18,9.16-46.6,1.36-5.9.08-9.49-4.84-12.3l17.8-34.45c6.62,10.73,10.36,22.36,17.3,32.2a3.61,3.61,0,0,1-1.93,3.17c-4,2.57-4.29,5.8-3.32,10.34,3.45,16.16,6.31,32.44,9.4,48.68-1.31,6.81-5.25,12.52-7.87,18.78-3.5,8.32-7.46,16.45-11.21,24.66Z"/><path class="cls-6" d="M270.49,448c4.95,2.82,6.23,6.43,4.87,12.36-3.58,15.5-6.21,31.21-9.22,46.84-8-14-14.17-28.78-21.16-43.22-5.06-10.47-10.61-20.72-14.73-31.64,5.09-.38,7.16,4.29,10.34,6.74,3.93,3,8,6,11.9,9.05C260.13,454.14,263.05,454,270.49,448Z"/><path class="cls-4" d="M260.59,550.87c-4.27-6.72-10.24-12-16.18-17-8.56-7.2-16.13-15.4-24.42-22.86-11.69-10.51-21.75-20.74-33.59-31.1a6,6,0,0,1-1.42-7.77c4.07-7.37,8-14.85,12.24-22.08,2.23-3.76,1.36-3.85-1.73-4.4-7-1.26-14-2.67-21-3.42-4.75-.5-6.52-3.11-5.52-7.69,3.24-14.93,6.46-29.68,9-45,8-3.08,17.54-4.16,25.71-6.62,3-.91,3.29,1.5,4.08,3.11,7.34,15.07,14.9,30,22.2,45.12.31.63.3,1.67.68,2.27,4.05,10.75,9.52,20.84,14.51,31.15,6.87,14.22,14,28.81,21.83,42.56,1.58,3.89,3.94,7.9,5.78,11.66,5.25,10.69,9.58,21.34,14.13,32.36C278.76,551.38,268.67,551.82,260.59,550.87Z"/><path class="cls-8" d="M357.59,376.56a26.46,26.46,0,0,0-4.62,3.2c-.84.68-1.52,1.18-2.2,1.77h0a20.31,20.31,0,0,1-3.32,2.14l-.07,0c-9.12,2.54-17.65,6.67-27.08,8.44-27.43,5.12-51.26-1.83-72.64-19.3-11.2-9.18-19.8-20.42-27.74-32.3a41.05,41.05,0,0,1-3.6-7.36c-.59-1.27-1.18-2-1.59-2.85a3,3,0,0,1,1.34,1.09,7.89,7.89,0,0,0,2.54,2.6c5.59,3.42,9.84,8.57,15,12.54,14.49,11.08,30.07,19.86,48.53,21.56,15.24,1.43,29.35-3,42.51-10.52s24.82-17.46,35.81-28.05c1.18-1.11,2.51-2,3.81-3.07,0,12.29-.37,24.58.13,36.8C364.61,369.36,363,373.65,357.59,376.56Z"/><path class="cls-9" d="M350.76,381.52l1.24-1Z"/><path class="cls-6" d="M346,431.21c-.24.36-.49.71-.73,1.06C345.53,431.92,345.78,431.57,346,431.21Z"/><path class="cls-4" d="M430.43,510.42c-9.35,0-18.71-.2-28.06.09-4.17.13-5.75-1.08-5.6-5.85.43-13.83-1.48-11.47,10.49-11.57,17.19-.14,34.37.1,51.55-.13,4.37-.06,6.08,1.07,5.9,6.17-.47,13.33,1.39,11.11-10.22,11.27C446.47,510.51,438.45,510.42,430.43,510.42Z"/><path d="M203.38,163.56c-9.85-4.63-21.12-8.44-29.72-15.45-1.62-1.32-2.87-2.26-1.27-4.3,45.54-4,92.13-7,137.9-5.77,30.47.79,61.38,3.33,91.74,5.81-2.34,6-8.3,8.75-13.19,11.68-5.59,3.35-11.89,5.62-18.17,7.6-25.38,9.4-51.75,12.23-78.63,12.61C261.82,176.16,232.17,173.16,203.38,163.56Z"/><path class="cls-10" d="M144.58,498.48c-3.8-2.92-7.42-6.1-11.45-8.68-3.11-2-4.46-4.23-4.3-7.89.28-6.6.17-13.22,0-19.82-.06-3,.7-4.51,4.21-4.46,11.31.15,22.63.1,33.94,0,3,0,4.25,1.14,4.21,4-.08,7.18-.1,14.36,0,21.53.05,2.92-1.86,4.42-3.87,5.93-4.13,3.11-8.31,6.17-12.47,9.26Z"/><path class="cls-11" d="M144.71,497.13l10.11-.06c9.88,6,13.23,14.55,9.06,23.21-2.92,6.05-9.29,9.83-15.48,9.18a16.64,16.64,0,0,1-7.61-29.87C142,498.67,143.4,498,144.71,497.13Z"/><path class="cls-11" d="M287.43,91a15.57,15.57,0,0,1-16.1-15.87,16,16,0,0,1,16-16.19c8.38,0,15.78,7.31,16,15.8A16.1,16.1,0,0,1,287.43,91Z"/><path class="cls-12" d="M430.41,403.26c3.11.14,4.72,1.74,4.74,4.79a4.3,4.3,0,0,1-4.26,4.65c-3.06.27-4.86-1.73-5.05-4.51S427.46,403.54,430.41,403.26Z"/><path class="cls-12" d="M494.63,422.57c-.17,3.16-1.76,4.87-4.9,4.9a4.41,4.41,0,0,1-4.81-4.34c-.29-3.14,1.74-5,4.6-5.22S494.29,419.55,494.63,422.57Z"/><path class="cls-12" d="M460.13,410.06c2.73.5,4.63,1.74,4.76,4.65.14,3.18-1.45,4.94-4.66,5a4.4,4.4,0,0,1-4.83-4.37C455.23,412.28,457.34,410.68,460.13,410.06Z"/><path class="cls-12" d="M150.34,408c-.43,2.84-1.85,5-5,4.93a4.56,4.56,0,0,1-4.81-4.52c-.17-3,1.33-5.08,4.58-5.25S149.78,405,150.34,408Z"/><path class="cls-12" d="M120.54,415c-.44,2.55-1.66,4.4-4.52,4.55-3.11.16-4.89-1.42-5-4.52a4.36,4.36,0,0,1,4.31-4.75C118.37,410.13,120,412.13,120.54,415Z"/><path class="cls-12" d="M91.24,422.6c-.42,3-1.93,5-5.22,4.95-3,0-4.62-1.63-4.73-4.63a4.55,4.55,0,0,1,4.39-5.08C88.74,417.58,90.68,419.42,91.24,422.6Z"/></svg>