<svg id="Layer_1" data-name="Layer 1" xmlns="http://www.w3.org/2000/svg" viewBox="0 0 576 576"><defs><style>.cls-1{fill:#723623;}.cls-2{fill:#a8c5c0;}.cls-3{fill:#171e1d;}.cls-4{fill:#777668;}.cls-5{fill:#1a1410;}.cls-6{fill:#50615e;}.cls-7{fill:#512e25;}.cls-8{fill:#dcdbdb;}.cls-9{fill:#ffdeb7;}.cls-10{fill:#d8cd85;}.cls-11{fill:#959187;}.cls-12{fill:#d1c681;}.cls-13{fill:#fff;}</style></defs><path class="cls-1" d="M221.45,353.53c2.83,6.07,7.66,16.12,17.89,25.22,12.27,10.92,26,14.74,33.48,17,6.72,2,16.66,4.86,29.35,3.67,4.83-.45,5.59-1.07,26.14-6.88,17.41-4.92-5.41-9.76-6.42-15.59-.78-4.49,16.62-5.49,28.43-20.64,6.72-8.62,4.78-13,14-29.78a152.61,152.61,0,0,1,13.07-19.75C401,274.66,415.64,198.07,404,193.39c-4.27-1.72-10.24,7-12.89,5.13-5.68-4.05,22.18-44.12,13.76-52.28-3.78-3.66-11.32,2.55-28.89,7.34-16.92,4.62-34.81,1.71-70.62,2.75-10.59.31-5.78-.76-33.48-1.83-36-1.4-39.06,1-60.08-.92-29.66-2.72-34-8.18-40.36-3.67-3.65,2.62-11.3,11,7.34,88.05C178.8,238,190.89,287.92,221.45,353.53Z"/><path class="cls-2" d="M518,421.69c24.52,11.15,41.45,28.72,47.09,55.81.21,1-.3,2.29,1.2,2.69v12.12a635.85,635.85,0,0,1-121.3,41.24c-43.55,9.9-87.68,15-132.25,16.9a14.62,14.62,0,0,1-2.17-.21c.25-2,1.94-3,3.21-4.3,5.21-5.13,10.48-10.19,15.94-15.09,10.48-9.41,20.13-19.76,30.64-29.14,7.67-6.83,14.55-14.47,22.37-21.07,5.85-4.93,6-5,2.17-11.53s-7.41-13.46-11.14-20.17c-1.36-2.43-1.52-3.78,2-4.3,7.55-1.15,15-2.81,22.54-4.11,3.31-.56,5.72-1.19,4.07-5.55-1.08-2.86-1.42-6-2-9.06-2.34-12.34-5.61-25-6.94-37.5,3.32.79,6.76,1.84,10.09,2.63,0,2-.31,4.29-.31,6.3,0,12.38,2.59,16.33,14.53,19.87,25,7.41,50.57,12.73,76,18.63,11.47,2.66,18.4-1.54,23.07-12.46A8.74,8.74,0,0,1,518,421.69Zm-91.41,87.15c7.69,0,15.39.08,23.08,0,11.15-.14,9.36,1.83,9.81-10,.18-4.53-1.46-5.53-5.66-5.48-16.49.21-33,0-49.47.12-11.49.08-9.66-2-10.07,10.28-.14,4.23,1.37,5.31,5.37,5.19C408.57,508.66,417.56,508.84,426.54,508.84Z"/><path class="cls-2" d="M522,422.32C546.47,433.47,563.4,451,569,478.13c.21,1-.3,2.29,1.2,2.69v12.12a635.85,635.85,0,0,1-121.3,41.24c-43.55,9.9-87.68,15-132.25,16.9a14.62,14.62,0,0,1-2.17-.21c.25-2,1.94-3,3.21-4.3,5.21-5.13,10.48-10.19,15.94-15.09,10.48-9.41,20.13-19.76,30.64-29.14,7.67-6.83,14.55-14.47,22.37-21.07,5.85-4.93,6-5,2.17-11.53s-7.41-13.46-11.14-20.17c-1.36-2.43-1.52-3.78,2-4.3,7.55-1.15,15-2.81,22.54-4.11,3.31-.56,5.72-1.19,4.07-5.55-1.08-2.86-1.42-6-2-9.06-2.34-12.34-5.77-24.46-7.1-37l10,2.37c0,2,0,4,0,6.05,0,12.38,2.59,16.33,14.53,19.87,25,7.41,50.57,12.73,76,18.63,11.47,2.66,18.4-1.54,23.07-12.46A8.74,8.74,0,0,1,522,422.32Zm-91.41,87.15c7.69,0,15.39.08,23.08,0,11.15-.14,9.36,1.83,9.81-10,.18-4.53-1.46-5.53-5.66-5.48-16.49.21-33,0-49.47.12-11.49.08-9.66-2-10.07,10.28-.14,4.23,1.37,5.31,5.37,5.19C412.57,509.29,421.56,509.47,430.54,509.47Z"/><path class="cls-1" d="M348.45,382.68c-2,3.6-6.95,5.68-10.14,7.66a215.66,215.66,0,0,1-46.47,22.21c-2.11.7-4,1.2-6.36.42a228.82,228.82,0,0,1-70.41-38.63c-2.49-2-3.16-4.07-3.12-7,.13-9.17-.76-18.44.27-27.51,1.11-9.85-3.11-16.57-9.37-23.15-4.65-4.89-8.49-10.53-12.93-15.63-9-10.3-10.69-23-11.9-35.77-.33-3.42-1.19-5.59-4.15-7.62-13.3-9.08-20.37-22.31-23.34-37.75-1.93-10,5.28-22.42,18.54-24.53,10.54-.27,13.71,7.27,16.25,15.4a28.24,28.24,0,0,1,.47,4.36c.37,2.75,2,4.54,4.74,4.34,3-.23,2.93-2.79,2.71-5.05-.55-5.65-1.51-11.29-1.65-16.94-.21-8.32.29-16.83,6.87-22.94a14.19,14.19,0,0,0,5-11c28.79,9.6,58.44,12.6,88.66,12.18,26.88-.38,53.25-3.21,78.63-12.61,2.1.09,2.06,1.66,2.18,3.13.18,2,.39,4.35,2,5.57,10,7.7,10.09,18.45,9.42,29.45-.3,4.75-1,9.47-1.42,14.21-.17,1.77.26,3.42,2.2,3.9a3.89,3.89,0,0,0,4.57-2.22,11.21,11.21,0,0,0,.81-3.69c1.4-11,6.12-16.19,16.63-18.11,12.54,4.83,19.13,13.83,17.49,23.93a55.22,55.22,0,0,1-12.38,26.56c-2.77,3.37-5.13,7.29-9.21,9.3-5.89,2.9-6.59,8.53-6.69,13.81-.31,16.67-8.51,29.42-18.75,41.61-4.43,5.28-10.2,9.5-13.26,15.92-1.27,1-2.63,1.94-3.8,3.07-11,10.56-22.53,20.4-35.8,28s-27.3,12-42.52,10.55c-18.46-1.72-34-10.49-48.52-21.59-5.77-4.43-10.43-10.24-17.07-13.55a2.16,2.16,0,0,0-1.24-2.08,1.47,1.47,0,0,0-.18-.4c-.06-.07-.21,0-.31-.07l.49.47c.31.91.66,1.27,1,2.28a41.6,41.6,0,0,0,3.6,7.33c7.94,11.9,16.54,23.12,27.76,32.3,21.37,17.49,45.21,24.44,72.61,19.31C329.79,390.38,339.34,385.25,348.45,382.68Z"/><path class="cls-2" d="M169.05,392l10-2.43c-2,15.19-5.73,30-9,45-1,4.58-.23,6.19,4.52,6.69,7.05.75,14,2.16,21,3.42,3.09.55,5,1.64,2.73,5.4-4.29,7.23-8.17,14.71-12.24,22.08-1.3,2.36-2.25,4.43.42,6.77,11.84,10.36,22.9,21.59,34.59,32.1,8.29,7.46,15.86,15.66,24.42,22.86,5.94,5,11.91,10.27,16.18,17-17.24-.11-34.42-1.42-51.55-3.19A667,667,0,0,1,92.18,525,628.9,628.9,0,0,1,9.43,494.37c-2.91-1.31-3.64-2.85-3.47-5.77,1.52-26.2,14.17-45.67,35.88-59.68,4-2.57,7.95-5.23,12.53-6.71,5.49,13.35,13.08,17.13,27.35,13.68,5.13-1.25,10.3-2.3,15.42-3.6,18.87-4.8,38-8.44,56.64-14.24,12.46-3.88,15.32-8.12,15.3-21.09ZM145,498.48c-1.26.74-2.57,1.41-3.76,2.25a15,15,0,0,0-6,15.89,15.7,15.7,0,0,0,13.28,11.44,15.32,15.32,0,0,0,14.81-8.4c4-7.92.79-15.78-8.66-21.24,3.9-3,7.81-6,11.69-9,1.88-1.46,3.67-2.92,3.63-5.74-.11-6.95-.09-13.9,0-20.86,0-2.8-1.18-3.92-3.95-3.91-10.61.07-21.22.12-31.83,0-3.29-.05-4,1.42-3.94,4.32.13,6.4.23,12.81,0,19.2-.14,3.54,1.12,5.7,4,7.64C138.07,492.57,141.47,495.65,145,498.48Z"/><path class="cls-3" d="M161.58,131.75c10.1-1.62,20.19-4.33,30.31-5.83,22.36-3.32,44.92-3.62,67.44-3.87,28.59-.31,57.19-.34,85.78.67,22.74.81,45.24,4.61,67.5,9.28.82,5-1.71,8.75-4.4,12.47-2.21-.2-4.43.59-6.65.38-30.36-2.48-60.71-5-91.18-5.81-45.77-1.19-91.36,1.78-136.9,5.77-1.9.28-3.79-.43-5.69-.14C163.16,141.59,161.61,137,161.58,131.75Z"/><path class="cls-4" d="M161.58,131.75c-7.05-6.75-13.55-13.93-18-22.72-9-17.72-5.93-33.4,9.22-46.25s32.08-23.34,50.85-30.05C265.17,10.72,326.12,12,386,39.09c13.25,6,25.21,14.22,36.3,23.63,14.89,12.64,18,28.44,9.14,45.82-4.65,9.12-11.34,16.62-18.84,23.46a397.06,397.06,0,0,0-67.5-8.28c-28.59-1-57.19-1-85.78-.67-22.52.25-45.08.55-67.44,3.87C181.77,128.42,171.68,130.13,161.58,131.75ZM287.52,91a16.1,16.1,0,0,0,15.92-16.26c-.26-8.49-7.66-15.78-16-15.8a16,16,0,0,0-16,16.19A15.57,15.57,0,0,0,287.52,91Z"/><path class="cls-5" d="M285.61,551.2c-4.87-11.14-10.6-21.89-16.23-32.7-2-3.8-3.43-7.84-5.13-11.78,3.18-15.55,6-31.18,9.74-46.6,1.44-5.9.09-9.49-5.14-12.3,6.16-11.23,12.32-22.45,18.9-34.46,7,10.74,11,22.37,18.37,32.21a3.59,3.59,0,0,1-2.05,3.17c-4.24,2.57-4.55,5.8-3.52,10.34,3.66,16.16,6.7,32.44,10,48.68-1.39,6.8-5.57,12.52-8.35,18.78-3.71,8.32-7.92,16.45-11.91,24.66Z"/><path class="cls-6" d="M397.44,389.56c1.33,12.53,4.51,24.65,6.85,37,.57,3,.91,6.2,2,9.06,1.65,4.36-.76,5-4.07,5.55-7.53,1.3-15,3-22.54,4.11-3.48.52-3.32,1.87-2,4.3,3.73,6.71,7.25,13.55,11.14,20.17s3.68,6.6-2.17,11.53c-7.82,6.6-14.7,14.24-22.37,21.07-10.51,9.38-20.16,19.73-30.64,29.14-5.46,4.9-10.73,10-15.94,15.09-1.27,1.25-3,2.26-3.21,4.3-8.07.93-16.16.51-24.25.33,3.72-8.13,7.64-16.17,11.09-24.4,2.6-6.2,6.5-11.86,7.79-18.6,3.85-4.51,5.51-10.17,8-15.39,9.51-20.12,18.84-40.33,28.24-60.51v0c.24-.35.49-.7.73-1.06,7.2-15.17,14.47-30.32,21.57-45.55,1.43-3.08,2.75-4.5,6.52-3.17C381.75,385.16,389.76,387.24,397.44,389.56Z"/><path class="cls-6" d="M260.68,550.87c-4.27-6.72-10.24-11-16.18-16-8.56-7.2-16.13-15.4-24.42-22.86-11.69-10.51-22.75-22.74-34.59-33.1-2.67-2.34-1.72-4.41-.42-6.77,4.07-7.37,8-14.85,12.24-22.08,2.23-3.76,1.36-3.85-1.73-4.4-7-1.26-15-2.67-22-3.42-4.75-.5-5.52-3.11-4.52-7.69,3.24-14.93,7-29.78,9-45,8-3.08,17.54-4.16,25.71-6.62,3-.91,3.29,1.5,4.08,3.11,7.34,15.07,14.9,30,22.2,45.12.31.63.3,1.67.68,2.27,4.05,10.75,9.52,20.84,14.51,31.15,6.87,14.22,13,28.81,20.83,42.56,1.58,3.89,2.94,7.9,4.78,11.66,5.25,10.69,10.58,21.34,15.13,32.36C277.85,551.38,268.76,551.82,260.68,550.87Z"/><path class="cls-6" d="M522,422.32a8.74,8.74,0,0,0-1.25,1.7c-4.67,10.92-11.6,15.12-23.07,12.46-25.4-5.9-50.95-11.22-76-18.63-11.94-3.54-14.54-7.49-14.53-19.87,0-2,0-4,0-6.05,21.77,5.19,43.58,10.22,65.3,15.62,14.13,3.51,28.66,5.55,42.22,11.21C517.16,419.81,519.86,420.44,522,422.32Zm-91.44-18.71c-2.74.26-4.41,1.88-4.23,4.56s1.84,4.43,4.67,4.18a4,4,0,0,0,3.94-4.31C434.87,405.22,433.39,403.74,430.51,403.61Zm63.73,19c-.31-2.72-1.93-4.39-4.61-4.2s-4.4,1.88-4.14,4.71a4,4,0,0,0,4.33,3.91C492.66,427,494.08,425.43,494.24,422.58Zm-34-12.1c-2.54.57-4.46,2-4.31,4.79a4,4,0,0,0,4.4,4c2.92,0,4.38-1.64,4.25-4.54C464.45,412.07,462.71,410.94,460.22,410.48Z"/><path class="cls-6" d="M170.05,392l0,4.94c0,13-3.84,18.21-16.3,22.09-18.61,5.8-37.77,9.44-56.64,14.24-5.12,1.3-10.29,2.35-15.42,3.6-14.27,3.45-22.86-1.33-28.35-14.68,10.9-6.23,24.09-8.47,36.09-11.34,25.83-6.17,51.63-12.48,77.44-18.71A25.28,25.28,0,0,1,170.05,392Zm-20.14,16c-.5-2.7-1.79-4.48-4.69-4.33s-4.25,2-4.1,4.69a4.08,4.08,0,0,0,4.3,4C148.25,412.41,149.52,410.51,149.91,408Zm-29.6,7c-.54-2.7-2-4.56-4.81-4.39a4.05,4.05,0,0,0-4,4.42c.05,2.89,1.71,4.36,4.61,4.21C118.76,419.12,119.89,417.39,120.31,415ZM90.76,422.6c-.5-2.81-2.22-4.45-4.92-4.22A4,4,0,0,0,82,422.89,3.83,3.83,0,0,0,86.14,427C89,427,90.39,425.27,90.76,422.6Z"/><path class="cls-7" d="M401.57,143.85l6.64.62c2.26,15.36,1.11,30.68-.54,46-.18,1.64-.38,3.27-.56,4.91-10.51,1.92-15.23,7.07-16.63,18.11a11.21,11.21,0,0,1-.81,3.69,3.89,3.89,0,0,1-4.57,2.22c-1.94-.48-2.37-2.13-2.2-3.9.46-4.74,1.12-9.46,1.42-14.21.67-11,.53-21.75-9.42-29.45-1.57-1.22-1.78-3.53-2-5.57-.12-1.47-.08-3-2.18-3.13a83.19,83.19,0,0,0,17.78-8.21C393.43,152,399.23,149.88,401.57,143.85Z"/><path class="cls-7" d="M167.79,144.67l5.69-.86c-1.6,2-.35,3,1.27,4.3,8.6,7,18.87,10.82,28.72,15.45a14.19,14.19,0,0,1-5,11c-6.58,6.11-7.08,14.62-6.87,22.94.14,5.65,1.1,11.29,1.65,16.94.22,2.26.3,4.82-2.71,5.05-2.72.2-4.37-1.59-4.74-4.34a28.24,28.24,0,0,0-.47-4.36c-2.54-8.13-5.71-15.67-16.25-15.4C167,178.51,165.72,161.63,167.79,144.67Z"/><path class="cls-8" d="M309.15,508.2c-3-16.06-5.89-32.18-9.3-48.17-1-4.49-.67-7.69,3.29-10.23a3.58,3.58,0,0,0,1.91-3.14c5,7.68,9.6,8.71,17.08,3.32,6.76-4.87,13.6-9.69,19.56-15.57,1.05-1,2.05-2.11,3.68-2.11-9.4,20.18-18.73,40.39-28.24,60.51C314.66,498,313,503.69,309.15,508.2Z"/><path class="cls-8" d="M270.31,448.89c4.87,2.77,6.14,6.33,4.79,12.17-3.51,15.26-6.11,30.73-9.07,46.12-7.84-13.75-14-28.34-20.83-42.56-5-10.31-10.46-20.4-14.51-31.15,5-.37,7.05,4.22,10.18,6.63,3.87,3,7.86,5.88,11.72,8.92C260.12,455,263,454.82,270.31,448.89Z"/><path class="cls-7" d="M357.68,376.56a26.46,26.46,0,0,0-4.62,3.2c-.84.68-1.52,1.18-2.2,1.77h0a20.31,20.31,0,0,1-3.32,2.14l-.07,0c-9.12,2.54-17.65,6.67-27.08,8.44-27.43,5.12-51.26-1.83-72.64-19.3-11.2-9.18-19.8-20.42-27.74-32.3a41.05,41.05,0,0,1-3.6-7.36c-.59-1.27-1.18-2-1.59-2.85a3,3,0,0,1,1.34,1.09,7.89,7.89,0,0,0,2.54,2.6c5.59,3.42,9.84,8.57,15,12.54,14.49,11.08,30.07,19.86,48.53,21.56,15.24,1.43,29.35-3,42.51-10.52s24.82-17.46,35.81-28.05c1.18-1.11,2.51-2,3.81-3.07,0,12.29-.37,24.58.13,36.8C364.7,369.36,363.11,373.65,357.68,376.56Z"/><path class="cls-9" d="M350.85,381.52l1.24-1Z"/><path class="cls-8" d="M346.11,431.21c-.24.36-.49.71-.73,1.06C345.62,431.92,345.87,431.57,346.11,431.21Z"/><path class="cls-6" d="M430.74,510.12c-9.22,0-18.44-.19-27.66.09-4.11.12-5.66-1-5.52-5.63.43-13.3-1.46-11,10.35-11.12,16.93-.14,33.87.09,50.8-.13,4.31-.06,6,1,5.81,5.93-.46,12.82,1.37,10.68-10.07,10.84C446.55,510.21,438.64,510.12,430.74,510.12Z"/><path class="cls-4" d="M203.47,163.56c-9.85-4.63-20.12-8.44-28.72-15.45-1.62-1.32-2.87-2.26-1.27-4.3,45.54-4,91.13-7,136.9-5.77,30.47.79,60.82,3.33,91.18,5.81-2.33,6-8.13,8.14-13,11.07a83.19,83.19,0,0,1-17.78,8.21c-25.38,9.4-51.75,12.23-78.63,12.61C261.91,176.16,232.26,173.16,203.47,163.56Z"/><path class="cls-10" d="M287.52,92a17.27,17.27,0,0,1-17.1-16.87c0-9,8.15-17.23,17-17.19,8.38,0,16.78,8.31,17,16.8C304.7,83.4,296.42,91.84,287.52,92Z"/><path class="cls-11" d="M144.78,499.36c-3.73-3-7.29-6.23-11.26-8.86-3.06-2.05-4.39-4.32-4.23-8.06.27-6.74.17-13.51,0-20.26-.06-3.05.69-4.6,4.14-4.55,11.13.16,22.26.1,33.39,0,2.91,0,4.18,1.16,4.14,4.12-.08,7.33-.1,14.67,0,22,0,3-1.83,4.51-3.81,6-4.07,3.18-8.18,6.31-12.27,9.46Z"/><path class="cls-10" d="M144.67,498.48l10.29-.06c10,5.74,13.46,14,9.21,22.31a16.33,16.33,0,0,1-15.75,8.83,16.61,16.61,0,0,1-14.12-12,15.63,15.63,0,0,1,6.38-16.69C141.94,500,143.34,499.26,144.67,498.48Z"/><path class="cls-12" d="M430.5,403.27c3.1.15,4.7,1.74,4.72,4.78a4.28,4.28,0,0,1-4.24,4.63c-3.05.27-4.84-1.72-5-4.5S427.56,403.56,430.5,403.27Z"/><path class="cls-12" d="M150.2,408c-.41,2.7-1.76,4.72-4.78,4.69a4.35,4.35,0,0,1-4.59-4.31c-.16-2.84,1.27-4.84,4.37-5S149.67,405.1,150.2,408Z"/><path class="cls-12" d="M120.83,415c-.46,2.66-1.73,4.59-4.71,4.74-3.24.17-5.1-1.47-5.15-4.71a4.53,4.53,0,0,1,4.48-4.94C118.56,409.93,120.23,412,120.83,415Z"/><path class="cls-12" d="M91.2,422.6c-.41,2.93-1.89,4.85-5.08,4.81-2.87,0-4.5-1.59-4.6-4.5a4.41,4.41,0,0,1,4.27-5C88.76,417.7,90.65,419.5,91.2,422.6Z"/><path class="cls-13" d="M364.37,366.6c-.91,3.17-3.4,8.13-6.89,10.07a28,28,0,0,0-5.39,3.88l-1.23,1c-1.3.92-2,1.17-3.41,2.15l-.46.71c-3.22,3.52-5.47,4-8.68,5.95-14.86,9-30,16.8-46.47,22.21a8.09,8.09,0,0,1-5.9.21,226.89,226.89,0,0,1-70.37-37.95c-2.49-2-3.64-3.91-3.6-6.85,0-.11,0-.53,0-.64-1.5-.22-.44,4.15-1.91,3.86-.83,5.59-3.94,4.75-5.63,10.32,0,0-.8,1.5-.8,1.5,2.87-1.21,3.78,2.24,4.54,3.87,7.2,15.4,14.33,30.45,21.91,45.27a17.92,17.92,0,0,0,.81,1.78c5-.37,7.37,4.25,10.5,6.65,3.87,3,7.86,5.88,11.71,8.92,7.53,5.94,10.41,5.81,17.73-.13l17.62-34.1c6.54,10.62,10.25,22.13,17.12,31.88,5,7.67,9.6,8.7,17.08,3.31,6.76-4.87,13.6-9.68,19.56-15.57,1-1,2.05-2.11,3.68-2.11v0l.73-1.05c7.2-15.18,14.47-30.33,21.56-45.56a6.4,6.4,0,0,1,2.53-3.19c.69-.78,1.21-.38,1.4-.95"/><path class="cls-12" d="M494.56,422.57c-.16,3.07-1.7,4.71-4.74,4.74a4.25,4.25,0,0,1-4.65-4.19c-.28-3,1.68-4.85,4.45-5.05S494.23,419.65,494.56,422.57Z"/><path class="cls-12" d="M460.22,410.15c2.67.49,4.54,1.71,4.67,4.56.13,3.12-1.43,4.84-4.57,4.88a4.32,4.32,0,0,1-4.73-4.29C455.42,412.33,457.49,410.76,460.22,410.15Z"/></svg>