<?xml version="1.0" encoding="utf-8"?>
<!-- Generator: Adobe Illustrator 25.4.0, SVG Export Plug-In . SVG Version: 6.00 Build 0)  -->
<svg version="1.1" id="Layer_1" xmlns="http://www.w3.org/2000/svg" xmlns:xlink="http://www.w3.org/1999/xlink" x="0px" y="0px"
	 viewBox="0 0 518.56 518.06" style="enable-background:new 0 0 518.56 518.06;" xml:space="preserve">
<style type="text/css">
	.st0{fill:#1A779C;}
	.st1{fill:url(#SVGID_1_);}
	.st2{fill:url(#SVGID_00000010285348973515718240000000019960681800626575_);}
</style>
<g>
	<linearGradient id="SVGID_1_" gradientUnits="userSpaceOnUse" x1="2.728484e-12" y1="259.0233" x2="363.5949" y2="259.0233">
		<stop  offset="0" style="stop-color:#4997CC"/>
		<stop  offset="0.4584" style="stop-color:#4794C8"/>
		<stop  offset="0.9255" style="stop-color:#438ABC"/>
		<stop  offset="1" style="stop-color:#4288B9"/>
	</linearGradient>
	<path class="st1" d="M321.96,517.53c-2.45,0.17-4.91,0.48-7.36,0.49c-81,0.03-162.01,0.04-243.01,0.02
		c-18.07,0-36.15,0.01-54.21-0.24c-14.07-0.2-16.82-3.09-17.3-17.19c-0.84-24.76,4.58-47.75,20.07-67.59
		c10.41-13.34,24.49-22.22,39.07-30.26c21.77-11.99,45.15-20.21,68.31-28.98c12.41-4.7,24.45-10.69,36-17.23
		c10.48-5.94,15.72-15.93,15.96-28.12c0.25-12.41,0.35-24.83,0.22-37.25c-0.02-2.22-1.22-4.6-2.39-6.61
		c-6.32-10.84-13.43-21.27-18.99-32.47c-3.37-6.78-4.91-14.62-6.36-22.16c-1.49-7.73-1.7-15.71-2.85-23.52
		c-0.29-1.99-1.53-4.36-3.1-5.56c-20.36-15.63-21.14-37.8-20.27-60.44c0.18-4.57,3.59-7.38,8.07-7.58c5.45-0.25,6.49-3,6.5-7.84
		c0.03-14-0.92-28.21,1.07-41.97c4.93-34.11,21.85-60.54,54.59-74.19c22.68-9.46,46.63-10.51,70.85-6.92
		c13.88,2.06,26.98,6.18,38.91,13.61c19.68,12.26,31.43,30.26,38.29,52.11c5.49,17.49,4.98,35.31,4.67,53.21
		c-0.04,2.42-0.01,4.84-0.04,7.26c-0.03,2.66,1.01,3.96,3.89,4.4c8.26,1.27,11.08,4.16,11.03,12.44
		c-0.1,15.06-1.32,30.09-9.33,43.36c-2.68,4.44-6.83,8.14-10.81,11.6c-3.06,2.65-4.54,5.36-4.7,9.44
		c-0.56,14.54-1.7,29.21-8.11,42.44c-5.3,10.95-12.46,21-18.47,31.63c-1.83,3.24-3.38,7.03-3.65,10.68
		c-0.6,7.86-0.53,15.81-0.25,23.7c0.16,4.32-1.07,7.65-3.71,11.02c-19.5,24.87-29.34,53.33-29.05,84.78
		c0.35,38.73,14.89,71.78,42.76,98.82c1.34,1.3,3.1,2.17,4.66,3.24C322.61,516.27,322.29,516.9,321.96,517.53z"/>
	
		<linearGradient id="SVGID_00000098906350563914841290000012939084914112700579_" gradientUnits="userSpaceOnUse" x1="307.8677" y1="412.8745" x2="518.5596" y2="412.8745">
		<stop  offset="0" style="stop-color:#7EBA57"/>
		<stop  offset="1" style="stop-color:#70A74E"/>
	</linearGradient>
	<path style="fill:url(#SVGID_00000098906350563914841290000012939084914112700579_);" d="M413.04,518.06
		c-58.22,0-105.17-46.88-105.17-105.04c-0.01-58.3,47.1-105.22,105.48-105.33c57.93-0.11,105.4,48.03,105.21,105.65
		C518.37,469.8,471.77,518.63,413.04,518.06z M389.07,459.49c0.02,0,0.03,0,0.05,0c0,5.33-0.06,10.65,0.01,15.98
		c0.1,7.44,2.84,10.25,10.25,10.34c8.88,0.1,17.75,0.08,26.63,0.02c8.58-0.06,11.61-3.13,11.65-11.78
		c0.05-10.33,0.15-20.66-0.01-30.98c-0.07-4.17,1.51-5.79,5.68-5.73c10.49,0.15,20.98,0.08,31.47,0.02
		c8.13-0.04,11.23-3.01,11.33-11.02c0.11-8.87,0.12-17.75,0.02-26.63c-0.1-8.24-2.86-10.86-11.26-10.89
		c-10.33-0.04-20.66-0.17-30.98,0.1c-4.7,0.12-6.32-1.74-6.27-6.24c0.12-10.81,0.08-21.63-0.09-32.44
		c-0.11-6.84-3.01-9.76-9.76-9.87c-9.52-0.15-19.04-0.14-28.56-0.04c-7.76,0.08-10.08,2.48-10.11,10.26
		c-0.05,10.65-0.12,21.3,0.03,31.95c0.06,4.54-1.76,6.41-6.33,6.34c-10.33-0.16-20.66-0.06-30.99-0.04
		c-9.12,0.02-11.26,2.1-11.31,11.05c-0.05,8.71-0.05,17.43,0,26.14c0.04,8.62,2.69,11.24,11.33,11.27
		c10.33,0.04,20.66,0.1,30.99-0.03c4.43-0.05,6.57,1.47,6.31,6.23C388.85,448.83,389.07,454.17,389.07,459.49z"/>
</g>
</svg>
