<svg id="Layer_1" data-name="Layer 1" xmlns="http://www.w3.org/2000/svg" viewBox="0 0 216 216"><defs><style>.cls-1{fill:#243130;}.cls-2{fill:#8a4e3b;}.cls-3{fill:#1a2223;}.cls-4{fill:#ce2027;}.cls-5{fill:#0a1629;}.cls-6{fill:#604337;}.cls-7{fill:#dcdcdb;}.cls-8{fill:#683b2f;}.cls-9{fill:#fedfb8;}.cls-10{fill:#d9cd86;}.cls-11{fill:#969288;}.cls-12{fill:#d1c682;}.cls-13{fill:#fff;}.cls-14{font-size:37.92px;fill:#231f20;font-family:Montserrat-ExtraBold, Montserrat;font-weight:800;}.cls-15{letter-spacing:-0.01em;}.cls-16{letter-spacing:-0.01em;}</style></defs><path class="cls-1" d="M183.61,134.89c7.9,3.59,13.36,9.26,15.18,18,.06.31-.1.73.38.86v3.91a204.94,204.94,0,0,1-39.09,13.29,237.2,237.2,0,0,1-42.62,5.45,5.53,5.53,0,0,1-.7-.07c.08-.66.62-1,1-1.39,1.68-1.65,3.38-3.28,5.14-4.86,3.38-3,6.49-6.37,9.88-9.39,2.47-2.2,4.68-4.66,7.21-6.79,1.88-1.59,1.93-1.61.69-3.72s-2.38-4.33-3.59-6.5c-.43-.78-.49-1.21.63-1.38,2.44-.37,4.84-.91,7.27-1.33,1.07-.18,1.84-.38,1.31-1.79a16.68,16.68,0,0,1-.64-2.92c-.75-4-1.86-7.88-2.29-11.92l3.21.77c0,.65,0,1.3,0,2,0,4,.84,5.26,4.69,6.4,8.06,2.39,16.3,4.1,24.48,6,3.7.86,5.93-.49,7.44-4A2.57,2.57,0,0,1,183.61,134.89ZM154.15,163c2.48,0,5,0,7.44,0,3.59-.05,3,.59,3.16-3.23.06-1.46-.47-1.78-1.82-1.76-5.32.06-10.63,0-16,0-3.7,0-3.11-.65-3.24,3.31-.05,1.36.44,1.71,1.73,1.67C148.36,162.92,151.26,163,154.15,163Z"/><path class="cls-2" d="M127.37,122.44c-.66,1.16-1.92,1.5-2.94,2.14a69.42,69.42,0,0,1-15,7.16,3,3,0,0,1-2,.14,73.83,73.83,0,0,1-22.69-12.45,2.52,2.52,0,0,1-1-2.26c0-3-.24-6,.09-8.87.36-3.17-1-5.34-3-7.46-1.5-1.58-2.74-3.4-4.17-5-2.88-3.32-3.44-7.41-3.83-11.53a2.88,2.88,0,0,0-1.34-2.45c-4.29-2.93-6.56-7.19-7.52-12.17a7,7,0,0,1,6-7.9c3.39-.09,4.41,2.34,5.23,5a8.12,8.12,0,0,1,.15,1.41,1.4,1.4,0,0,0,1.53,1.39c1-.07,1-.9.87-1.62-.17-1.83-.48-3.64-.53-5.47-.07-2.68.1-5.42,2.22-7.39A4.55,4.55,0,0,0,81,51.5c9.28,3.09,18.83,4.06,28.57,3.92,8.67-.12,17.17-1,25.35-4.06.67,0,.66.54.7,1a2.4,2.4,0,0,0,.63,1.79c3.2,2.49,3.25,6,3,9.49-.09,1.53-.31,3.06-.45,4.58-.06.57.08,1.1.71,1.26a1.25,1.25,0,0,0,1.47-.71,3.62,3.62,0,0,0,.26-1.19c.45-3.56,2-5.22,5.36-5.84,4,1.56,6.16,4.46,5.64,7.71a17.87,17.87,0,0,1-4,8.56,9.85,9.85,0,0,1-3,3c-1.9.93-2.13,2.75-2.16,4.45-.1,5.37-2.74,9.48-6,13.41-1.43,1.7-3.29,3.06-4.27,5.13-.42.33-.85.63-1.23,1A60.05,60.05,0,0,1,120,114a23,23,0,0,1-13.7,3.4c-6-.55-11-3.38-15.64-7-1.86-1.43-3.36-3.3-5.5-4.37a.7.7,0,0,0-.4-.67.75.75,0,0,0-.06-.13s-.06,0-.1,0l.16.15c.1.3.22.41.33.74a13.28,13.28,0,0,0,1.16,2.36,46.29,46.29,0,0,0,8.94,10.41c6.89,5.64,14.58,7.88,23.41,6.22C121.68,124.6,124.43,123.27,127.37,122.44Z"/><path class="cls-3" d="M67.47,41.25a27.7,27.7,0,0,1-5.81-7.33c-2.92-5.71-1.91-10.76,3-14.9A53,53,0,0,1,81,9.33c19.85-7.09,39.49-6.67,58.79,2.05A50.3,50.3,0,0,1,151.5,19c4.8,4.07,5.8,9.16,2.94,14.76a26.63,26.63,0,0,1-6.07,7.57,127.25,127.25,0,0,0-21.75-2.67c-9.22-.33-18.43-.32-27.65-.22a159.41,159.41,0,0,0-21.73,1.25C74,40.17,70.73,40.72,67.47,41.25ZM108.06,28.1a5.2,5.2,0,0,0,5.13-5.24,5.36,5.36,0,0,0-5.17-5.1A5.16,5.16,0,0,0,102.87,23,5,5,0,0,0,108.06,28.1Z"/><path class="cls-1" d="M69.88,125.12l3.21-.78c-.63,4.9-1.85,9.68-2.89,14.49-.32,1.48-.07,2,1.46,2.16,2.27.24,4.52.7,6.77,1.1,1,.18,1.59.53.88,1.74-1.39,2.33-2.63,4.74-4,7.12-.42.76-.72,1.43.14,2.18,3.81,3.34,7.38,7,11.14,10.35,2.68,2.4,5.12,5,7.87,7.36a24.71,24.71,0,0,1,5.22,5.48c-5.56,0-11.09-.46-16.61-1a214.86,214.86,0,0,1-38-7.3,203.21,203.21,0,0,1-26.67-9.88,1.61,1.61,0,0,1-1.11-1.86c.49-8.44,4.56-14.72,11.56-19.23a17.47,17.47,0,0,1,4-2.17c1.77,4.31,4.22,5.53,8.81,4.41,1.66-.4,3.32-.74,5-1.16,6.08-1.54,12.26-2.72,18.26-4.59,4-1.25,4.93-2.61,4.93-6.79C69.88,126.19,69.88,125.66,69.88,125.12Zm-7.74,34.31c-.41.24-.83.46-1.21.73A4.82,4.82,0,0,0,59,165.28,5,5,0,0,0,63.27,169,5,5,0,0,0,68,166.26c1.29-2.55.26-5.08-2.79-6.84,1.26-1,2.52-1.92,3.77-2.9a2.25,2.25,0,0,0,1.17-1.85c0-2.24,0-4.48,0-6.72,0-.9-.38-1.26-1.28-1.26-3.42,0-6.83,0-10.25,0-1.06,0-1.29.46-1.27,1.39,0,2.07.07,4.13,0,6.19a2.53,2.53,0,0,0,1.31,2.46C59.89,157.53,61,158.52,62.14,159.43Z"/><path class="cls-3" d="M143.4,124.33c.43,4,1.54,8,2.29,11.92a16.68,16.68,0,0,0,.64,2.92c.53,1.41-.24,1.61-1.31,1.79-2.43.42-4.83,1-7.27,1.33-1.12.17-1.06.6-.63,1.38,1.21,2.17,2.34,4.37,3.59,6.5s1.19,2.13-.69,3.72c-2.53,2.13-4.74,4.59-7.21,6.79-3.39,3-6.5,6.36-9.88,9.39-1.76,1.58-3.46,3.21-5.14,4.86-.41.41-1,.73-1,1.39a56.68,56.68,0,0,1-7.82.1c1.2-2.61,2.47-5.21,3.58-7.86.84-2,2.09-3.82,2.51-6,1.24-1.46,1.78-3.28,2.57-5,3.07-6.49,6.07-13,9.1-19.5h0l.23-.34c2.32-4.89,4.66-9.78,6.95-14.68.46-1,.89-1.46,2.1-1C138.43,122.91,140.93,123.58,143.4,124.33Z"/><path class="cls-3" d="M99.73,176.32a24.71,24.71,0,0,0-5.22-5.48c-2.75-2.32-5.19-5-7.87-7.36-3.76-3.39-7.33-7-11.14-10.35-.86-.75-.56-1.42-.14-2.18,1.32-2.38,2.56-4.79,4-7.12.71-1.21.11-1.56-.88-1.74-2.25-.4-4.5-.86-6.77-1.1-1.53-.16-1.78-.68-1.46-2.16,1-4.81,2.26-9.59,2.89-14.49,2.58-1,5.33-1.34,8-2.13,1-.29,1.07.48,1.32,1,2.36,4.86,4.8,9.68,7.15,14.54.1.21.1.54.22.73,1.31,3.47,3.07,6.72,4.68,10,2.21,4.59,4.19,9.29,6.71,13.72.51,1.25,1,2.54,1.54,3.76,1.69,3.44,3.41,6.87,4.88,10.42A56.68,56.68,0,0,1,99.73,176.32Z"/><path class="cls-4" d="M67.47,41.25c3.26-.53,6.51-1.08,9.77-1.56A159.41,159.41,0,0,1,99,38.44c9.22-.1,18.43-.11,27.65.22a127.25,127.25,0,0,1,21.75,2.67c.27,1.6-.55,2.82-1.42,4l-2.14-.2c-9.78-.8-19.57-1.62-29.38-1.88A391.71,391.71,0,0,0,71.3,45.13l-1.83.28A4.63,4.63,0,0,1,67.47,41.25Z"/><path class="cls-5" d="M107.55,176.42c-1.47-3.55-3.19-7-4.88-10.42-.59-1.22-1-2.51-1.54-3.76,1-5,1.79-10,2.93-14.87.43-1.88,0-3-1.55-3.92l5.68-11c2.11,3.43,3.3,7.14,5.52,10.28a1.14,1.14,0,0,1-.62,1c-1.27.83-1.37,1.85-1.06,3.3,1.1,5.16,2,10.35,3,15.53-.42,2.17-1.67,4-2.51,6-1.11,2.65-2.38,5.25-3.58,7.86Z"/><path class="cls-3" d="M183.61,134.89a2.57,2.57,0,0,0-.4.55c-1.51,3.52-3.74,4.87-7.44,4-8.18-1.9-16.42-3.61-24.48-6-3.85-1.14-4.69-2.41-4.69-6.4,0-.65,0-1.3,0-2,7,1.67,14,3.29,21,5,4.55,1.13,9.23,1.79,13.6,3.61A7.56,7.56,0,0,1,183.61,134.89Zm-29.47-6a1.41,1.41,0,1,0,.14,2.82,1.28,1.28,0,0,0,1.27-1.39A1.29,1.29,0,0,0,154.14,128.86ZM174.68,135a1.34,1.34,0,0,0-1.49-1.35,1.32,1.32,0,0,0-1.33,1.52,1.28,1.28,0,0,0,1.39,1.26A1.32,1.32,0,0,0,174.68,135Zm-11-3.89c-.81.18-1.43.65-1.38,1.54a1.29,1.29,0,0,0,1.41,1.28,1.23,1.23,0,0,0,1.37-1.46C165.08,131.59,164.52,131.22,163.71,131.08Z"/><path class="cls-3" d="M69.88,125.12c0,.54,0,1.07,0,1.6,0,4.18-.92,5.54-4.93,6.79-6,1.87-12.18,3.05-18.26,4.59-1.65.42-3.31.76-5,1.16-4.59,1.12-7-.1-8.81-4.41,3.51-2,7.44-2.72,11.31-3.65,8.32-2,16.64-4,25-6A5.21,5.21,0,0,1,69.88,125.12Zm-6.17,5.15c-.16-.87-.58-1.45-1.51-1.4a1.41,1.41,0,0,0,.06,2.81C63.17,131.7,63.58,131.08,63.71,130.27Zm-9.54,2.27c-.17-.87-.65-1.47-1.55-1.42a1.31,1.31,0,0,0-1.29,1.43,1.25,1.25,0,0,0,1.48,1.35C53.67,133.86,54,133.3,54.17,132.54ZM44.65,135a1.44,1.44,0,0,0-1.59-1.36,1.3,1.3,0,0,0-1.25,1.45,1.23,1.23,0,0,0,1.35,1.32A1.4,1.4,0,0,0,44.65,135Z"/><path class="cls-6" d="M144.81,45.15l2.14.2a58.35,58.35,0,0,1-.17,14.82l-.18,1.58c-3.39.62-4.91,2.28-5.36,5.84a3.62,3.62,0,0,1-.26,1.19,1.25,1.25,0,0,1-1.47.71c-.63-.16-.77-.69-.71-1.26.14-1.52.36-3,.45-4.58.22-3.54.17-7-3-9.49a2.4,2.4,0,0,1-.63-1.79c0-.47,0-1-.7-1a26.55,26.55,0,0,0,5.72-2.65C142.19,47.77,144.06,47.09,144.81,45.15Z"/><path class="cls-6" d="M69.47,45.41l1.83-.28c-.51.66-.11,1,.41,1.39,2.77,2.26,6.09,3.49,9.26,5A4.55,4.55,0,0,1,79.36,55c-2.12,2-2.29,4.71-2.22,7.39,0,1.83.36,3.64.53,5.47.08.72.1,1.55-.87,1.62a1.4,1.4,0,0,1-1.53-1.39,8.12,8.12,0,0,0-.15-1.41c-.82-2.62-1.84-5-5.23-5A66.22,66.22,0,0,1,69.47,45.41Z"/><path class="cls-7" d="M115,162.57c-1-5.18-1.9-10.37-3-15.53-.31-1.45-.21-2.47,1.06-3.3a1.14,1.14,0,0,0,.62-1c1.61,2.47,3.09,2.8,5.5,1.06a53.36,53.36,0,0,0,6.31-5,1.66,1.66,0,0,1,1.18-.68c-3,6.5-6,13-9.1,19.5C116.81,159.29,116.27,161.11,115,162.57Z"/><path class="cls-7" d="M102.51,143.45c1.57.9,2,2,1.55,3.92-1.14,4.92-2,9.91-2.93,14.87-2.52-4.43-4.5-9.13-6.71-13.72-1.61-3.32-3.37-6.57-4.68-10,1.62-.12,2.27,1.36,3.28,2.14,1.25,1,2.54,1.89,3.78,2.87C99.23,145.41,100.15,145.36,102.51,143.45Z"/><path class="cls-8" d="M130.67,120.14a8.42,8.42,0,0,0-1.49,1c-.27.22-.49.38-.71.57h0a6.13,6.13,0,0,1-1.07.69h0c-2.94.82-5.69,2.15-8.73,2.72-8.84,1.65-16.52-.59-23.41-6.22a46.29,46.29,0,0,1-8.94-10.41,13.32,13.32,0,0,1-1.16-2.37c-.19-.41-.38-.66-.51-.92a1,1,0,0,1,.43.35,2.53,2.53,0,0,0,.82.84c1.8,1.1,3.17,2.76,4.83,4,4.67,3.57,9.69,6.4,15.64,7A22.94,22.94,0,0,0,120,114a59.71,59.71,0,0,0,11.54-9c.38-.36.81-.66,1.23-1,0,4-.12,7.92,0,11.86C132.93,117.82,132.42,119.2,130.67,120.14Z"/><path class="cls-9" d="M128.47,121.74l.4-.31Z"/><path class="cls-7" d="M126.94,137.76l-.23.34Z"/><path class="cls-3" d="M154.15,163c-2.89,0-5.79-.06-8.68,0-1.29,0-1.78-.31-1.73-1.67.13-4-.46-3.29,3.24-3.31,5.32-.05,10.63,0,16,0,1.35,0,1.88.3,1.82,1.76-.15,3.82.43,3.18-3.16,3.23C159.11,163,156.63,163,154.15,163Z"/><path class="cls-3" d="M81,51.5c-3.17-1.49-6.49-2.72-9.26-5-.52-.43-.92-.73-.41-1.39a391.71,391.71,0,0,1,44.13-1.86c9.81.26,19.6,1.08,29.38,1.88-.75,1.94-2.62,2.62-4.2,3.56a26.55,26.55,0,0,1-5.72,2.65c-8.18,3-16.68,3.94-25.35,4.06C99.8,55.56,90.25,54.59,81,51.5Z"/><path class="cls-10" d="M108.06,28.1A5,5,0,0,1,102.87,23,5.16,5.16,0,0,1,108,17.76a5.36,5.36,0,0,1,5.17,5.1A5.2,5.2,0,0,1,108.06,28.1Z"/><path class="cls-11" d="M62.14,159.43c-1.15-.91-2.25-1.9-3.46-2.71a2.53,2.53,0,0,1-1.31-2.46c.09-2.06.06-4.12,0-6.19,0-.93.21-1.4,1.27-1.39,3.42,0,6.83,0,10.25,0,.9,0,1.29.36,1.28,1.26,0,2.24,0,4.48,0,6.72A2.25,2.25,0,0,1,69,156.52c-1.25,1-2.51,1.93-3.77,2.9Z"/><path class="cls-10" d="M62.14,159.43h3.11c3,1.76,4.08,4.29,2.79,6.84A5,5,0,0,1,63.27,169,5,5,0,0,1,59,165.28a4.82,4.82,0,0,1,1.94-5.12C61.31,159.89,61.73,159.67,62.14,159.43Z"/><path class="cls-12" d="M154.14,128.86a1.29,1.29,0,0,1,1.41,1.43,1.28,1.28,0,0,1-1.27,1.39,1.41,1.41,0,1,1-.14-2.82Z"/><path class="cls-12" d="M63.71,130.27c-.13.81-.54,1.43-1.45,1.41a1.41,1.41,0,0,1-.06-2.81C63.13,128.82,63.55,129.4,63.71,130.27Z"/><path class="cls-12" d="M54.17,132.54c-.13.76-.5,1.32-1.36,1.36a1.25,1.25,0,0,1-1.48-1.35,1.31,1.31,0,0,1,1.29-1.43C53.52,131.07,54,131.67,54.17,132.54Z"/><path class="cls-12" d="M44.65,135a1.4,1.4,0,0,1-1.49,1.41,1.23,1.23,0,0,1-1.35-1.32,1.3,1.3,0,0,1,1.25-1.45A1.44,1.44,0,0,1,44.65,135Z"/><path class="cls-13" d="M132.82,116.93a5.82,5.82,0,0,1-2.22,3.25,9.17,9.17,0,0,0-1.73,1.25l-.4.31c-.42.3-.64.38-1.1.7l-.15.23a9.1,9.1,0,0,1-2.79,1.91,72.28,72.28,0,0,1-15,7.16,2.59,2.59,0,0,1-1.9.07,73.19,73.19,0,0,1-22.68-12.23,2.57,2.57,0,0,1-1.16-2.21s0-.17,0-.2c-.48-.08-.14,1.33-.61,1.24-.27,1.8-1.27,1.53-1.82,3.32,0,0-.25.49-.25.49.92-.39,1.21.72,1.46,1.24,2.32,5,4.62,9.82,7.06,14.6a5.86,5.86,0,0,0,.26.57c1.61-.12,2.37,1.37,3.38,2.14,1.25,1,2.54,1.9,3.78,2.88,2.43,1.91,3.35,1.87,5.71-.05l5.68-11c2.11,3.43,3.3,7.14,5.52,10.28,1.61,2.47,3.09,2.8,5.5,1.07a53.45,53.45,0,0,0,6.31-5,1.7,1.7,0,0,1,1.18-.68h0l.23-.34c2.32-4.89,4.66-9.77,7-14.68a2.11,2.11,0,0,1,.81-1c.23-.25.4-.12.46-.31"/><text class="cls-14" transform="translate(53.27 211.16)"><tspan class="cls-15">D</tspan><tspan class="cls-16" x="28.67" y="0">C</tspan><tspan x="54.41" y="0">OS</tspan></text><path class="cls-12" d="M174.68,134.85a1.32,1.32,0,0,1-1.43,1.43,1.28,1.28,0,0,1-1.39-1.26,1.32,1.32,0,0,1,1.33-1.52A1.34,1.34,0,0,1,174.68,134.85Z"/><path class="cls-12" d="M163.71,131c.81.14,1.37.51,1.4,1.36a1.23,1.23,0,0,1-1.37,1.46,1.29,1.29,0,0,1-1.41-1.28C162.28,131.61,162.9,131.14,163.71,131Z"/></svg>