<svg id="Layer_1" data-name="Layer 1" xmlns="http://www.w3.org/2000/svg" viewBox="0 0 181.86 224.51"><defs><style>.cls-1{fill:#e6e4ec;}.cls-2{fill:#c0886c;}.cls-3{fill:#888889;}.cls-4{fill:#ce2027;}.cls-5{fill:#1a1411;}.cls-6{fill:#1a2223;}.cls-7{fill:#604337;}.cls-8{fill:#dcdcdb;}.cls-9{fill:#865946;}.cls-10{fill:#fedfb8;}.cls-11{fill:#d9cd86;}.cls-12{fill:#969288;}.cls-13{fill:#d1c682;}.cls-14{fill:#fff;}.cls-15{font-size:37.92px;fill:#231f20;font-family:Montserrat-ExtraBold, Montserrat;font-weight:800;}</style></defs><path class="cls-1" d="M183.6,134.65c7.91,3.6,13.36,9.26,15.18,18,.07.32-.1.74.39.87v3.91a205.63,205.63,0,0,1-39.09,13.29,236.29,236.29,0,0,1-42.62,5.44,5.36,5.36,0,0,1-.7-.06c.08-.66.62-1,1-1.39,1.68-1.66,3.38-3.29,5.14-4.86,3.37-3,6.48-6.37,9.87-9.39,2.47-2.21,4.69-4.67,7.21-6.8,1.88-1.59,1.94-1.6.7-3.71s-2.39-4.34-3.59-6.5c-.44-.78-.49-1.22.63-1.39,2.43-.37,4.84-.9,7.27-1.32,1.06-.18,1.84-.39,1.31-1.79a17.66,17.66,0,0,1-.65-2.92c-.75-4-1.85-7.88-2.28-11.92l3.21.76c0,.65,0,1.3,0,2,0,4,.84,5.26,4.68,6.4,8.07,2.39,16.3,4.11,24.49,6,3.69.86,5.93-.5,7.43-4A4,4,0,0,1,183.6,134.65Zm-29.46,28.09c2.48,0,5,0,7.45,0,3.59-.05,3,.59,3.16-3.23.05-1.46-.48-1.78-1.83-1.77-5.31.07-10.63,0-15.94,0-3.71,0-3.11-.65-3.25,3.31,0,1.37.44,1.72,1.73,1.68C148.36,162.69,151.25,162.74,154.14,162.74Z" transform="translate(-17.31 -4.16)"/><path class="cls-2" d="M127.37,122.2c-.66,1.16-1.92,1.51-3,2.15a69.59,69.59,0,0,1-15,7.16,3.06,3.06,0,0,1-2,.13,73.62,73.62,0,0,1-22.69-12.45,2.5,2.5,0,0,1-1-2.26c0-3-.24-5.94.08-8.86.36-3.18-1-5.35-3-7.47-1.5-1.57-2.74-3.39-4.17-5-2.89-3.32-3.45-7.41-3.84-11.53a2.9,2.9,0,0,0-1.33-2.46c-4.29-2.92-6.57-7.19-7.53-12.16a7,7,0,0,1,6-7.91c3.4-.09,4.42,2.35,5.24,5a10.52,10.52,0,0,1,.15,1.4,1.41,1.41,0,0,0,1.53,1.4c1-.08.94-.9.87-1.63-.18-1.82-.49-3.64-.53-5.46-.07-2.68.09-5.42,2.21-7.39A4.59,4.59,0,0,0,81,51.26c9.28,3.1,18.83,4.06,28.57,3.93,8.66-.12,17.16-1,25.34-4.06.68,0,.66.53.7,1a2.46,2.46,0,0,0,.64,1.8c3.2,2.48,3.25,6,3,9.49-.1,1.53-.31,3-.46,4.58,0,.57.09,1.1.71,1.26a1.26,1.26,0,0,0,1.47-.72,3.83,3.83,0,0,0,.27-1.19c.45-3.56,2-5.22,5.35-5.84,4,1.56,6.17,4.46,5.64,7.72a17.77,17.77,0,0,1-4,8.56c-.89,1.08-1.65,2.35-3,3-1.9.94-2.12,2.75-2.15,4.46-.1,5.37-2.75,9.48-6,13.41-1.43,1.7-3.29,3-4.28,5.12-.41.33-.85.63-1.22,1a60,60,0,0,1-11.54,9,23,23,0,0,1-13.7,3.39c-6-.55-11-3.38-15.64-7-1.86-1.43-3.36-3.3-5.5-4.37a.72.72,0,0,0-.4-.67.39.39,0,0,0-.06-.13s-.07,0-.1,0l.16.15c.1.29.21.41.32.73a14.48,14.48,0,0,0,1.16,2.37,46.34,46.34,0,0,0,9,10.41c6.89,5.63,14.57,7.87,23.4,6.22C121.68,124.36,124.43,123,127.37,122.2Z" transform="translate(-17.31 -4.16)"/><path class="cls-1" d="M67.47,41a27.69,27.69,0,0,1-5.82-7.32c-2.91-5.71-1.91-10.76,3-14.91A52.9,52.9,0,0,1,81,9.1c19.84-7.09,39.48-6.68,58.78,2.05a49.77,49.77,0,0,1,11.7,7.62c4.8,4.07,5.8,9.16,2.95,14.76a26.93,26.93,0,0,1-6.07,7.56,128.5,128.5,0,0,0-21.76-2.67c-9.21-.32-18.43-.31-27.64-.21a159.4,159.4,0,0,0-21.73,1.24C74,39.94,70.72,40.49,67.47,41Zm40.59-13.15a5.17,5.17,0,0,0,5.12-5.24A5.35,5.35,0,0,0,108,17.53a5.18,5.18,0,0,0-5.15,5.22A5,5,0,0,0,108.06,27.86Z" transform="translate(-17.31 -4.16)"/><path class="cls-1" d="M69.87,124.89l3.22-.78c-.63,4.89-1.85,9.68-2.9,14.49-.32,1.48-.07,2,1.46,2.16,2.27.24,4.52.69,6.77,1.1,1,.18,1.6.53.88,1.74-1.38,2.33-2.63,4.74-3.94,7.11-.42.76-.73,1.43.13,2.19,3.82,3.34,7.38,6.95,11.15,10.34,2.67,2.41,5.11,5,7.87,7.37a24.94,24.94,0,0,1,5.22,5.48c-5.56,0-11.1-.46-16.62-1a214.9,214.9,0,0,1-38-7.29,205.57,205.57,0,0,1-26.67-9.88A1.62,1.62,0,0,1,17.31,156c.49-8.45,4.57-14.72,11.57-19.24a17.57,17.57,0,0,1,4-2.16c1.77,4.3,4.22,5.52,8.82,4.41,1.65-.4,3.32-.74,5-1.16,6.08-1.55,12.26-2.72,18.25-4.59,4-1.25,4.94-2.62,4.93-6.8C69.88,126,69.88,125.42,69.87,124.89ZM62.13,159.2c-.4.24-.83.45-1.21.73A4.82,4.82,0,0,0,59,165.05a5.05,5.05,0,0,0,4.28,3.68A4.93,4.93,0,0,0,68,166c1.29-2.56.25-5.09-2.79-6.85,1.25-1,2.52-1.92,3.77-2.89a2.27,2.27,0,0,0,1.17-1.85c0-2.24,0-4.48,0-6.72,0-.91-.38-1.27-1.27-1.26-3.42,0-6.84,0-10.26,0-1.06,0-1.29.46-1.27,1.39,0,2.06.07,4.13,0,6.19a2.52,2.52,0,0,0,1.3,2.46C59.89,157.3,61,158.29,62.13,159.2Z" transform="translate(-17.31 -4.16)"/><path class="cls-3" d="M143.4,124.1c.43,4,1.53,7.94,2.28,11.92a17.66,17.66,0,0,0,.65,2.92c.53,1.4-.25,1.61-1.31,1.79-2.43.42-4.84,1-7.27,1.32-1.12.17-1.07.61-.63,1.39,1.2,2.16,2.34,4.36,3.59,6.5s1.18,2.12-.7,3.71c-2.52,2.13-4.74,4.59-7.21,6.8-3.39,3-6.5,6.35-9.87,9.39-1.76,1.57-3.46,3.2-5.14,4.86-.41.4-1,.73-1,1.39a58.32,58.32,0,0,1-7.82.1c1.2-2.62,2.46-5.21,3.57-7.86.84-2,2.1-3.82,2.51-6,1.25-1.45,1.78-3.28,2.58-5,3.06-6.48,6.07-13,9.1-19.5h0l.23-.34c2.33-4.89,4.67-9.77,7-14.68.46-1,.88-1.45,2.1-1C138.42,122.68,140.92,123.35,143.4,124.1Z" transform="translate(-17.31 -4.16)"/><path class="cls-3" d="M99.73,176.09a24.94,24.94,0,0,0-5.22-5.48c-2.76-2.32-5.2-5-7.87-7.37-3.77-3.39-7.33-7-11.15-10.34-.86-.76-.55-1.43-.13-2.19,1.31-2.37,2.56-4.78,3.94-7.11.72-1.21.12-1.56-.88-1.74-2.25-.41-4.5-.86-6.77-1.1-1.53-.17-1.78-.68-1.46-2.16,1-4.81,2.27-9.6,2.9-14.49,2.57-1,5.33-1.34,8-2.14,1-.29,1.06.49,1.31,1,2.37,4.85,4.81,9.67,7.16,14.54.1.2.1.54.22.73,1.3,3.46,3.07,6.72,4.67,10,2.22,4.58,4.19,9.28,6.72,13.71.51,1.26.94,2.55,1.54,3.76,1.69,3.45,3.41,6.88,4.87,10.43A56.56,56.56,0,0,1,99.73,176.09Z" transform="translate(-17.31 -4.16)"/><path class="cls-4" d="M67.47,41c3.25-.52,6.5-1.07,9.77-1.56A159.4,159.4,0,0,1,99,38.21c9.21-.1,18.43-.11,27.64.21a128.5,128.5,0,0,1,21.76,2.67c.26,1.6-.55,2.82-1.42,4l-2.14-.2c-9.79-.8-19.57-1.62-29.39-1.87A386.89,386.89,0,0,0,71.3,44.9l-1.83.27A4.62,4.62,0,0,1,67.47,41Z" transform="translate(-17.31 -4.16)"/><path class="cls-5" d="M107.54,176.19c-1.46-3.55-3.18-7-4.87-10.43-.6-1.21-1-2.5-1.54-3.76,1-5,1.79-9.94,2.92-14.86.44-1.88,0-3-1.54-3.92l5.68-11c2.1,3.42,3.3,7.13,5.51,10.27a1.14,1.14,0,0,1-.61,1c-1.28.82-1.37,1.85-1.06,3.3,1.1,5.15,2,10.35,3,15.52-.41,2.18-1.67,4-2.51,6-1.11,2.65-2.37,5.24-3.57,7.86Z" transform="translate(-17.31 -4.16)"/><path class="cls-6" d="M183.6,134.65a4,4,0,0,0-.4.55c-1.5,3.52-3.74,4.88-7.43,4-8.19-1.9-16.42-3.62-24.49-6-3.84-1.14-4.68-2.41-4.68-6.4,0-.65,0-1.3,0-2,7,1.67,14,3.3,21,5,4.56,1.13,9.24,1.78,13.61,3.61A7.82,7.82,0,0,1,183.6,134.65Zm-29.47-6a1.41,1.41,0,1,0,.15,2.82,1.28,1.28,0,0,0,1.27-1.39A1.31,1.31,0,0,0,154.13,128.62Zm20.54,6.12a1.41,1.41,0,1,0-2.82.16,1.28,1.28,0,0,0,1.4,1.26A1.31,1.31,0,0,0,174.67,134.74Zm-11-3.9c-.82.18-1.44.65-1.39,1.54a1.3,1.3,0,0,0,1.42,1.29,1.25,1.25,0,0,0,1.37-1.46C165.07,131.35,164.51,131,163.71,130.84Z" transform="translate(-17.31 -4.16)"/><path class="cls-6" d="M69.87,124.89c0,.53,0,1.06,0,1.59,0,4.18-.91,5.55-4.93,6.8-6,1.87-12.17,3-18.25,4.59-1.65.42-3.32.76-5,1.16-4.6,1.11-7-.11-8.82-4.41,3.52-2,7.45-2.73,11.31-3.65,8.33-2,16.64-4,25-6A3.94,3.94,0,0,1,69.87,124.89ZM63.7,130c-.16-.87-.57-1.44-1.51-1.39a1.29,1.29,0,0,0-1.32,1.51,1.31,1.31,0,0,0,1.39,1.3C63.17,131.46,63.58,130.85,63.7,130Zm-9.54,2.27c-.17-.87-.65-1.47-1.55-1.41a1.31,1.31,0,0,0-1.29,1.42,1.26,1.26,0,0,0,1.49,1.36C53.66,133.62,54,133.07,54.16,132.3Zm-9.52,2.45a1.42,1.42,0,0,0-1.58-1.36,1.3,1.3,0,0,0-1.26,1.45,1.24,1.24,0,0,0,1.35,1.32C44.09,136.17,44.52,135.61,44.64,134.75Z" transform="translate(-17.31 -4.16)"/><path class="cls-7" d="M144.81,44.91l2.14.2a57.89,57.89,0,0,1-.18,14.82c-.05.53-.12,1.06-.18,1.58-3.38.62-4.9,2.28-5.35,5.84a3.83,3.83,0,0,1-.27,1.19,1.26,1.26,0,0,1-1.47.72c-.62-.16-.76-.69-.71-1.26.15-1.53.36-3,.46-4.58.22-3.54.17-7-3-9.49a2.46,2.46,0,0,1-.64-1.8c0-.47,0-1-.7-1a27.11,27.11,0,0,0,5.73-2.65C142.19,47.54,144.05,46.85,144.81,44.91Z" transform="translate(-17.31 -4.16)"/><path class="cls-7" d="M69.47,45.17l1.83-.27c-.52.66-.11,1,.41,1.39,2.77,2.25,6.08,3.48,9.26,5a4.59,4.59,0,0,1-1.62,3.54c-2.12,2-2.28,4.71-2.21,7.39,0,1.82.35,3.64.53,5.46.07.73.1,1.55-.87,1.63a1.41,1.41,0,0,1-1.53-1.4,10.52,10.52,0,0,0-.15-1.4c-.82-2.62-1.84-5.06-5.24-5A66.68,66.68,0,0,1,69.47,45.17Z" transform="translate(-17.31 -4.16)"/><path class="cls-8" d="M115,162.33c-1-5.17-1.89-10.37-3-15.52-.31-1.45-.22-2.48,1.06-3.3a1.14,1.14,0,0,0,.61-1c1.61,2.47,3.1,2.81,5.51,1.07a51.57,51.57,0,0,0,6.3-5,1.72,1.72,0,0,1,1.19-.68c-3,6.5-6,13-9.1,19.5C116.8,159.05,116.27,160.88,115,162.33Z" transform="translate(-17.31 -4.16)"/><path class="cls-8" d="M102.51,143.22c1.57.89,2,2,1.54,3.92-1.13,4.92-2,9.9-2.92,14.86-2.53-4.43-4.5-9.13-6.72-13.71-1.6-3.32-3.37-6.58-4.67-10,1.61-.12,2.27,1.36,3.28,2.14,1.25,1,2.53,1.89,3.77,2.87C99.22,145.17,100.15,145.13,102.51,143.22Z" transform="translate(-17.31 -4.16)"/><path class="cls-9" d="M130.67,119.91a8.42,8.42,0,0,0-1.49,1c-.27.22-.49.38-.71.57h0a7.26,7.26,0,0,1-1.07.69h0c-2.94.82-5.69,2.15-8.73,2.72-8.84,1.65-16.52-.59-23.41-6.22a46.29,46.29,0,0,1-8.94-10.41,13.32,13.32,0,0,1-1.16-2.37c-.19-.41-.38-.66-.51-.92a1,1,0,0,1,.43.35,2.53,2.53,0,0,0,.82.84c1.8,1.1,3.17,2.76,4.83,4,4.67,3.57,9.69,6.4,15.64,7A22.94,22.94,0,0,0,120,113.8a59.71,59.71,0,0,0,11.54-9c.38-.36.81-.66,1.23-1,0,4-.12,7.92,0,11.86C132.93,117.59,132.42,119,130.67,119.91Z" transform="translate(-17.31 -4.16)"/><path class="cls-10" d="M128.46,121.51l.4-.32Z" transform="translate(-17.31 -4.16)"/><path class="cls-8" d="M126.93,137.52l-.23.34Z" transform="translate(-17.31 -4.16)"/><path class="cls-3" d="M154.14,162.74c-2.89,0-5.78-.05-8.68,0-1.29,0-1.77-.31-1.73-1.68.14-4-.46-3.28,3.25-3.31,5.31,0,10.63,0,15.94,0,1.35,0,1.88.31,1.83,1.77-.15,3.82.43,3.18-3.16,3.23C159.11,162.77,156.62,162.74,154.14,162.74Z" transform="translate(-17.31 -4.16)"/><path class="cls-6" d="M81,51.26c-3.18-1.49-6.49-2.72-9.26-5-.52-.43-.93-.73-.41-1.39A386.89,386.89,0,0,1,115.42,43c9.82.25,19.6,1.07,29.39,1.87-.76,1.94-2.62,2.63-4.2,3.57a27.11,27.11,0,0,1-5.73,2.65c-8.18,3-16.68,3.94-25.34,4.06C99.8,55.32,90.25,54.36,81,51.26Z" transform="translate(-17.31 -4.16)"/><path class="cls-11" d="M108.06,27.86a5,5,0,0,1-5.2-5.11A5.18,5.18,0,0,1,108,17.53a5.35,5.35,0,0,1,5.17,5.09A5.17,5.17,0,0,1,108.06,27.86Z" transform="translate(-17.31 -4.16)"/><path class="cls-12" d="M62.13,159.2c-1.15-.91-2.24-1.9-3.46-2.71a2.52,2.52,0,0,1-1.3-2.46c.08-2.06.05-4.13,0-6.19,0-.93.21-1.41,1.27-1.39,3.42.05,6.84,0,10.26,0,.89,0,1.28.35,1.27,1.26,0,2.24,0,4.48,0,6.72A2.27,2.27,0,0,1,69,156.29c-1.25,1-2.52,1.93-3.77,2.89Z" transform="translate(-17.31 -4.16)"/><path class="cls-11" d="M62.13,159.2l3.12,0c3,1.76,4.08,4.29,2.79,6.85a4.93,4.93,0,0,1-4.77,2.7A5.05,5.05,0,0,1,59,165.05a4.82,4.82,0,0,1,1.93-5.12C61.3,159.65,61.73,159.44,62.13,159.2Z" transform="translate(-17.31 -4.16)"/><path class="cls-13" d="M154.13,128.62a1.31,1.31,0,0,1,1.42,1.43,1.28,1.28,0,0,1-1.27,1.39,1.41,1.41,0,1,1-.15-2.82Z" transform="translate(-17.31 -4.16)"/><path class="cls-13" d="M63.7,130c-.12.82-.53,1.43-1.44,1.42a1.31,1.31,0,0,1-1.39-1.3,1.29,1.29,0,0,1,1.32-1.51C63.13,128.59,63.54,129.16,63.7,130Z" transform="translate(-17.31 -4.16)"/><path class="cls-13" d="M54.16,132.3c-.13.77-.5,1.32-1.35,1.37a1.26,1.26,0,0,1-1.49-1.36,1.31,1.31,0,0,1,1.29-1.42C53.51,130.83,54,131.43,54.16,132.3Z" transform="translate(-17.31 -4.16)"/><path class="cls-13" d="M44.64,134.75c-.12.86-.55,1.42-1.49,1.41a1.24,1.24,0,0,1-1.35-1.32,1.3,1.3,0,0,1,1.26-1.45A1.42,1.42,0,0,1,44.64,134.75Z" transform="translate(-17.31 -4.16)"/><path class="cls-14" d="M132.82,116.7a5.76,5.76,0,0,1-2.22,3.24,9.24,9.24,0,0,0-1.74,1.25l-.39.32c-.42.3-.65.38-1.1.69l-.15.23a9.18,9.18,0,0,1-2.8,1.92,72.71,72.71,0,0,1-15,7.16,2.61,2.61,0,0,1-1.91.06,73.11,73.11,0,0,1-22.67-12.22,2.52,2.52,0,0,1-1.16-2.21s0-.18,0-.21c-.48-.07-.14,1.34-.62,1.24-.26,1.81-1.27,1.54-1.81,3.33,0,0-.26.48-.26.48.93-.39,1.22.73,1.46,1.25,2.33,5,4.62,9.82,7.07,14.59a4.92,4.92,0,0,0,.26.58c1.61-.12,2.37,1.36,3.38,2.14,1.25,1,2.53,1.89,3.78,2.87,2.42,1.92,3.35,1.87,5.71,0l5.68-11c2.11,3.42,3.3,7.13,5.51,10.27,1.61,2.48,3.1,2.81,5.51,1.07a51.57,51.57,0,0,0,6.3-5,1.72,1.72,0,0,1,1.19-.68h0l.24-.34c2.32-4.89,4.66-9.77,7-14.68a2.05,2.05,0,0,1,.81-1c.22-.25.39-.12.45-.3" transform="translate(-17.31 -4.16)"/><text class="cls-15" transform="translate(50.96 206.77)">DFC</text><path class="cls-13" d="M174.67,134.62a1.31,1.31,0,0,1-1.42,1.42,1.28,1.28,0,0,1-1.4-1.26,1.41,1.41,0,1,1,2.82-.16Z" transform="translate(-17.31 -4.16)"/><path class="cls-13" d="M163.71,130.72c.8.15,1.36.51,1.4,1.37a1.25,1.25,0,0,1-1.37,1.46,1.3,1.3,0,0,1-1.42-1.29C162.27,131.37,162.89,130.9,163.71,130.72Z" transform="translate(-17.31 -4.16)"/></svg>