<svg id="Layer_1" data-name="Layer 1" xmlns="http://www.w3.org/2000/svg" viewBox="0 0 216 216"><defs><style>.cls-1{fill:#0f2744;}.cls-2{fill:#8d5a3d;}.cls-3{fill:#0a1629;}.cls-4{fill:#1664a0;}.cls-5{fill:#a51e22;}.cls-6{fill:#604337;}.cls-7{fill:#dcdcdb;}.cls-8{fill:#553524;}.cls-9{fill:#fedfb8;}.cls-10{fill:#d9cd86;}.cls-11{fill:#969288;}.cls-12{fill:#d1c682;}.cls-13{fill:#fff;}.cls-14{font-size:37.92px;fill:#231f20;font-family:Montserrat-ExtraBold, Montserrat;font-weight:800;}</style></defs><path class="cls-1" d="M180.87,133.49c7.91,3.59,13.36,9.25,15.18,18,.06.32-.1.74.39.87v3.91a205.73,205.73,0,0,1-39.1,13.29A236.17,236.17,0,0,1,114.72,175a5.67,5.67,0,0,1-.7-.06c.08-.66.63-1,1-1.39,1.68-1.66,3.38-3.29,5.13-4.86,3.38-3,6.49-6.37,9.88-9.39,2.47-2.21,4.69-4.67,7.21-6.8,1.88-1.59,1.94-1.6.7-3.71s-2.39-4.34-3.59-6.5c-.44-.78-.49-1.22.63-1.39,2.43-.37,4.84-.9,7.26-1.32,1.07-.18,1.85-.39,1.31-1.79a18.72,18.72,0,0,1-.64-2.92c-.75-4-1.85-7.88-2.28-11.92l3.21.76c0,.65,0,1.3,0,2,0,4,.83,5.26,4.68,6.41,8.06,2.38,16.3,4.1,24.49,6,3.69.86,5.92-.5,7.43-4A3.43,3.43,0,0,1,180.87,133.49Zm-29.46,28.08c2.48,0,5,0,7.44,0,3.59,0,3,.59,3.16-3.23.06-1.46-.47-1.78-1.82-1.77-5.31.07-10.63,0-15.94,0-3.71,0-3.12-.65-3.25,3.31-.05,1.37.44,1.72,1.73,1.68C145.62,161.52,148.52,161.57,151.41,161.57Z"/><path class="cls-2" d="M124.63,121c-.65,1.16-1.91,1.51-2.94,2.15a69.66,69.66,0,0,1-15,7.16,3.05,3.05,0,0,1-2,.13A73.73,73.73,0,0,1,82,118a2.48,2.48,0,0,1-1-2.26c0-3-.25-5.94.08-8.86.36-3.18-1-5.35-3-7.47-1.49-1.57-2.73-3.39-4.16-5C71,91.08,70.42,87,70,82.87a2.87,2.87,0,0,0-1.33-2.45c-4.29-2.93-6.57-7.2-7.53-12.17a7,7,0,0,1,6-7.91c3.39-.09,4.42,2.35,5.23,5a9.08,9.08,0,0,1,.16,1.4,1.4,1.4,0,0,0,1.52,1.4c1-.07,1-.9.88-1.63-.18-1.82-.49-3.64-.54-5.46-.06-2.68.1-5.42,2.22-7.39a4.59,4.59,0,0,0,1.62-3.54c9.27,3.1,18.83,4.06,28.57,3.93,8.66-.12,17.16-1,25.34-4.06.68,0,.66.53.7,1a2.49,2.49,0,0,0,.63,1.8c3.21,2.48,3.25,6,3,9.49-.1,1.53-.31,3-.46,4.58-.05.57.08,1.1.71,1.26a1.26,1.26,0,0,0,1.47-.72,3.56,3.56,0,0,0,.26-1.19c.45-3.55,2-5.22,5.36-5.84,4,1.56,6.17,4.46,5.64,7.72a17.77,17.77,0,0,1-4,8.56c-.9,1.08-1.65,2.35-3,3-1.9.94-2.12,2.75-2.15,4.46-.11,5.37-2.75,9.48-6,13.41-1.42,1.7-3.28,3.06-4.27,5.12-.41.33-.85.63-1.23,1a60,60,0,0,1-11.53,9A23,23,0,0,1,103.6,116c-5.95-.55-11-3.38-15.63-7-1.86-1.43-3.36-3.3-5.5-4.37a.72.72,0,0,0-.4-.67.52.52,0,0,0-.06-.13s-.07,0-.1,0l.16.15c.1.29.21.41.32.73a13.72,13.72,0,0,0,1.16,2.37,46.08,46.08,0,0,0,9,10.41c6.88,5.63,14.57,7.87,23.4,6.22C118.94,123.19,121.7,121.86,124.63,121Z"/><path class="cls-1" d="M64.73,39.84a27.86,27.86,0,0,1-5.81-7.32C56,26.81,57,21.76,61.89,17.61A52.9,52.9,0,0,1,78.28,7.93C98.12.84,117.76,1.26,137.06,10a49.77,49.77,0,0,1,11.7,7.62c4.8,4.07,5.8,9.16,3,14.76a26.93,26.93,0,0,1-6.07,7.56,127.48,127.48,0,0,0-21.76-2.66c-9.21-.33-18.43-.32-27.64-.22A159.64,159.64,0,0,0,74.5,38.28C71.24,38.77,68,39.32,64.73,39.84Zm40.59-13.15a5.18,5.18,0,0,0,5.13-5.24,5.35,5.35,0,0,0-5.17-5.09,5.18,5.18,0,0,0-5.15,5.22A5,5,0,0,0,105.32,26.69Z"/><path class="cls-1" d="M67.14,123.72l3.21-.78c-.63,4.9-1.84,9.68-2.89,14.49-.32,1.48-.07,2,1.46,2.16,2.27.24,4.52.69,6.77,1.1,1,.18,1.6.53.88,1.74-1.38,2.33-2.63,4.74-3.94,7.11-.42.76-.73,1.43.13,2.19,3.82,3.34,7.38,7,11.15,10.34,2.67,2.41,5.11,5.05,7.87,7.37A24.67,24.67,0,0,1,97,174.92c-5.55,0-11.09-.46-16.61-1a215.48,215.48,0,0,1-38-7.3,203.59,203.59,0,0,1-26.67-9.88,1.62,1.62,0,0,1-1.12-1.86c.49-8.45,4.57-14.72,11.56-19.24a18.26,18.26,0,0,1,4-2.16C32,137.75,34.4,139,39,137.86c1.65-.4,3.32-.74,5-1.16,6.08-1.55,12.25-2.72,18.25-4.59,4-1.25,4.94-2.62,4.93-6.8C67.15,124.78,67.14,124.25,67.14,123.72ZM59.4,158a13.39,13.39,0,0,0-1.21.73,4.81,4.81,0,0,0-1.93,5.12,5,5,0,0,0,4.28,3.68,4.93,4.93,0,0,0,4.77-2.7c1.28-2.56.25-5.09-2.79-6.85l3.76-2.89a2.22,2.22,0,0,0,1.17-1.85q0-3.36,0-6.72c0-.91-.38-1.27-1.27-1.26-3.42,0-6.84,0-10.26,0-1.06,0-1.29.46-1.27,1.39,0,2.06.07,4.13,0,6.19a2.52,2.52,0,0,0,1.3,2.46C57.16,156.13,58.25,157.12,59.4,158Z"/><path class="cls-3" d="M140.67,122.93c.43,4,1.53,7.94,2.28,11.92a18.72,18.72,0,0,0,.64,2.92c.54,1.4-.24,1.61-1.31,1.79-2.42.42-4.83.95-7.26,1.32-1.12.17-1.07.61-.63,1.39,1.2,2.16,2.33,4.37,3.59,6.5s1.18,2.12-.7,3.71c-2.52,2.13-4.74,4.59-7.21,6.8-3.39,3-6.5,6.35-9.88,9.39-1.75,1.57-3.45,3.2-5.13,4.86-.41.4-1,.73-1,1.39a56.56,56.56,0,0,1-7.81.1c1.2-2.62,2.46-5.21,3.57-7.86.84-2,2.1-3.82,2.51-6,1.24-1.45,1.78-3.27,2.57-5,3.07-6.48,6.08-13,9.11-19.5h0l.23-.34c2.33-4.89,4.67-9.77,7-14.68.47-1,.89-1.45,2.11-1C135.69,121.51,138.19,122.18,140.67,122.93Z"/><path class="cls-3" d="M97,174.92a24.67,24.67,0,0,0-5.21-5.48c-2.76-2.32-5.2-5-7.87-7.37-3.77-3.39-7.33-7-11.15-10.34-.86-.76-.55-1.43-.13-2.19,1.31-2.37,2.56-4.78,3.94-7.11.72-1.21.12-1.56-.88-1.74-2.25-.41-4.5-.86-6.77-1.1-1.53-.16-1.78-.68-1.46-2.16,1.05-4.81,2.26-9.59,2.89-14.49,2.58-1,5.33-1.34,8-2.14,1-.29,1.06.49,1.31,1,2.37,4.85,4.8,9.67,7.16,14.54.1.2.09.54.22.73,1.3,3.46,3.06,6.72,4.67,10,2.22,4.58,4.19,9.28,6.72,13.72.5,1.25.94,2.54,1.54,3.75,1.69,3.45,3.41,6.88,4.87,10.43A56.7,56.7,0,0,1,97,174.92Z"/><path class="cls-4" d="M64.73,39.84c3.26-.52,6.51-1.07,9.77-1.56A159.64,159.64,0,0,1,96.24,37c9.21-.1,18.43-.11,27.64.22a127.48,127.48,0,0,1,21.76,2.66c.26,1.6-.56,2.82-1.42,4l-2.14-.2c-9.79-.8-19.57-1.62-29.39-1.87a386.89,386.89,0,0,0-44.12,1.86L66.74,44A4.61,4.61,0,0,1,64.73,39.84Z"/><path class="cls-3" d="M104.81,175c-1.46-3.55-3.18-7-4.87-10.43-.6-1.21-1-2.5-1.54-3.75.95-5,1.79-10,2.92-14.87.43-1.88,0-3-1.54-3.92,1.85-3.58,3.7-7.16,5.67-11,2.11,3.42,3.31,7.13,5.52,10.27a1.13,1.13,0,0,1-.62,1c-1.27.82-1.36,1.85-1,3.3,1.1,5.15,2,10.35,3,15.52-.41,2.18-1.67,4-2.51,6-1.11,2.65-2.37,5.24-3.57,7.86Z"/><path class="cls-5" d="M180.87,133.49a3.43,3.43,0,0,0-.4.54c-1.51,3.52-3.74,4.88-7.43,4-8.19-1.9-16.43-3.62-24.49-6-3.85-1.15-4.68-2.42-4.68-6.41,0-.65,0-1.3,0-2,7,1.67,14,3.3,21,5,4.55,1.13,9.24,1.78,13.61,3.61A7.62,7.62,0,0,1,180.87,133.49Zm-29.47-6a1.41,1.41,0,1,0,.15,2.81,1.29,1.29,0,0,0,1.27-1.39A1.3,1.3,0,0,0,151.4,127.46Zm20.54,6.11a1.41,1.41,0,1,0-2.82.16,1.28,1.28,0,0,0,1.4,1.26A1.31,1.31,0,0,0,171.94,133.57Zm-11-3.9c-.82.18-1.44.65-1.39,1.54A1.29,1.29,0,0,0,161,132.5a1.25,1.25,0,0,0,1.37-1.46C162.34,130.18,161.78,129.82,161,129.67Z"/><path class="cls-5" d="M67.14,123.72c0,.53,0,1.06,0,1.59,0,4.18-.91,5.55-4.93,6.8-6,1.87-12.17,3-18.25,4.59-1.65.42-3.32.76-5,1.16-4.6,1.11-7-.11-8.82-4.41,3.52-2,7.44-2.73,11.31-3.65,8.33-2,16.64-4,25-6A3.94,3.94,0,0,1,67.14,123.72ZM61,128.86c-.16-.87-.57-1.44-1.51-1.39A1.29,1.29,0,0,0,58.14,129a1.31,1.31,0,0,0,1.39,1.3C60.44,130.29,60.85,129.68,61,128.86Zm-9.54,2.27c-.17-.87-.65-1.47-1.55-1.41a1.31,1.31,0,0,0-1.29,1.42,1.26,1.26,0,0,0,1.49,1.36C50.93,132.45,51.3,131.9,51.43,131.13Zm-9.52,2.45a1.42,1.42,0,0,0-1.59-1.36,1.29,1.29,0,0,0-1.25,1.45A1.24,1.24,0,0,0,40.42,135C41.36,135,41.79,134.44,41.91,133.58Z"/><path class="cls-6" d="M142.08,43.74l2.14.2A57.89,57.89,0,0,1,144,58.76l-.18,1.58c-3.39.62-4.91,2.29-5.36,5.84a3.56,3.56,0,0,1-.26,1.19,1.26,1.26,0,0,1-1.47.72c-.63-.16-.76-.69-.71-1.26.15-1.53.36-3,.46-4.58.21-3.54.17-7-3-9.49a2.49,2.49,0,0,1-.63-1.8c0-.47,0-1-.7-1a27.11,27.11,0,0,0,5.73-2.65C139.45,46.37,141.32,45.69,142.08,43.74Z"/><path class="cls-6" d="M66.74,44l1.83-.27c-.52.66-.11,1,.41,1.39,2.77,2.26,6.08,3.48,9.26,5a4.59,4.59,0,0,1-1.62,3.54c-2.12,2-2.28,4.71-2.22,7.39,0,1.82.36,3.64.54,5.46.07.73.09,1.56-.88,1.63a1.4,1.4,0,0,1-1.52-1.4,9.08,9.08,0,0,0-.16-1.4c-.81-2.62-1.84-5.06-5.23-5A66.19,66.19,0,0,1,66.74,44Z"/><path class="cls-7" d="M112.29,161.16c-1-5.17-1.89-10.37-3-15.52-.31-1.45-.22-2.48,1-3.3a1.13,1.13,0,0,0,.62-1c1.61,2.47,3.1,2.81,5.51,1.07a52.34,52.34,0,0,0,6.3-5,1.72,1.72,0,0,1,1.19-.68c-3,6.51-6,13-9.11,19.5C114.07,157.89,113.53,159.71,112.29,161.16Z"/><path class="cls-7" d="M99.78,142.05c1.57.89,2,2,1.54,3.92-1.13,4.92-2,9.91-2.92,14.87-2.53-4.44-4.5-9.14-6.72-13.72-1.61-3.32-3.37-6.58-4.67-10,1.61-.12,2.27,1.36,3.28,2.14,1.25,1,2.53,1.89,3.77,2.87C96.49,144,97.42,144,99.78,142.05Z"/><path class="cls-8" d="M127.93,118.74a8.42,8.42,0,0,0-1.49,1c-.27.22-.49.38-.71.57h0a5.78,5.78,0,0,1-1.07.69h0c-2.94.82-5.69,2.15-8.73,2.72-8.84,1.65-16.52-.59-23.41-6.22a46.29,46.29,0,0,1-8.94-10.41,13.32,13.32,0,0,1-1.16-2.37c-.19-.41-.38-.66-.51-.92a1,1,0,0,1,.43.35,2.53,2.53,0,0,0,.82.84c1.8,1.1,3.17,2.76,4.83,4,4.67,3.57,9.69,6.4,15.64,7a22.94,22.94,0,0,0,13.7-3.39,59.71,59.71,0,0,0,11.54-9c.38-.36.81-.66,1.23-1,0,4-.12,7.92,0,11.86C130.19,116.42,129.68,117.8,127.93,118.74Z"/><path class="cls-9" d="M125.73,120.34l.4-.32Z"/><path class="cls-7" d="M124.2,136.35l-.23.34Z"/><path class="cls-3" d="M151.41,161.57c-2.89,0-5.79,0-8.68,0-1.29,0-1.78-.31-1.73-1.68.13-4-.46-3.28,3.25-3.31,5.31,0,10.63,0,15.94,0,1.35,0,1.88.31,1.82,1.77-.14,3.82.43,3.18-3.16,3.23C156.37,161.6,153.89,161.57,151.41,161.57Z"/><path class="cls-1" d="M78.24,50.09c-3.18-1.49-6.49-2.71-9.26-5-.52-.43-.93-.73-.41-1.39a386.89,386.89,0,0,1,44.12-1.86c9.82.25,19.6,1.07,29.39,1.87-.76,1.95-2.63,2.63-4.2,3.57A27.11,27.11,0,0,1,132.15,50C124,53,115.47,53.9,106.81,54,97.07,54.15,87.51,53.19,78.24,50.09Z"/><path class="cls-10" d="M105.32,26.69a5,5,0,0,1-5.19-5.11,5.18,5.18,0,0,1,5.15-5.22,5.35,5.35,0,0,1,5.17,5.09A5.18,5.18,0,0,1,105.32,26.69Z"/><path class="cls-11" d="M59.4,158c-1.15-.91-2.24-1.9-3.46-2.71a2.52,2.52,0,0,1-1.3-2.46c.08-2.06,0-4.13,0-6.19,0-.93.21-1.41,1.27-1.39,3.42.05,6.84,0,10.26,0,.89,0,1.28.35,1.27,1.26q0,3.36,0,6.72a2.22,2.22,0,0,1-1.17,1.85L62.52,158Z"/><path class="cls-10" d="M59.4,158l3.12,0c3,1.76,4.07,4.29,2.79,6.85a4.93,4.93,0,0,1-4.77,2.7,5,5,0,0,1-4.28-3.68,4.81,4.81,0,0,1,1.93-5.12A13.39,13.39,0,0,1,59.4,158Z"/><path class="cls-12" d="M151.4,127.46a1.3,1.3,0,0,1,1.42,1.42,1.29,1.29,0,0,1-1.27,1.39,1.41,1.41,0,1,1-.15-2.81Z"/><path class="cls-12" d="M171.94,133.57a1.31,1.31,0,0,1-1.42,1.42,1.28,1.28,0,0,1-1.4-1.26,1.41,1.41,0,1,1,2.82-.16Z"/><path class="cls-12" d="M161,129.67c.8.15,1.36.51,1.4,1.37A1.25,1.25,0,0,1,161,132.5a1.29,1.29,0,0,1-1.42-1.29C159.54,130.32,160.16,129.85,161,129.67Z"/><path class="cls-12" d="M61,128.86c-.12.82-.53,1.43-1.44,1.42a1.31,1.31,0,0,1-1.39-1.3,1.29,1.29,0,0,1,1.32-1.51C60.4,127.42,60.81,128,61,128.86Z"/><path class="cls-12" d="M51.43,131.13c-.13.77-.5,1.32-1.35,1.37a1.26,1.26,0,0,1-1.49-1.36,1.31,1.31,0,0,1,1.29-1.42C50.78,129.66,51.26,130.26,51.43,131.13Z"/><path class="cls-12" d="M41.91,133.58c-.12.86-.55,1.42-1.49,1.41a1.24,1.24,0,0,1-1.35-1.32,1.29,1.29,0,0,1,1.25-1.45A1.42,1.42,0,0,1,41.91,133.58Z"/><path class="cls-13" d="M130.09,115.53a5.81,5.81,0,0,1-2.22,3.24,9.36,9.36,0,0,0-1.74,1.25c-.13.11-.26.22-.4.32-.41.3-.64.38-1.1.69l-.14.23a9.3,9.3,0,0,1-2.8,1.92,72.79,72.79,0,0,1-15,7.16,2.59,2.59,0,0,1-1.9.06,73.06,73.06,0,0,1-22.68-12.22A2.57,2.57,0,0,1,81,116v-.21c-.49-.07-.14,1.34-.62,1.24-.27,1.81-1.27,1.54-1.81,3.33l-.26.49c.92-.4,1.22.72,1.46,1.24,2.32,5,4.62,9.82,7.06,14.59.11.2.14.38.26.58,1.62-.12,2.38,1.36,3.39,2.14,1.25,1,2.53,1.89,3.77,2.87,2.43,1.92,3.36,1.87,5.72,0,1.85-3.58,3.7-7.16,5.67-11,2.11,3.42,3.31,7.13,5.52,10.27,1.61,2.48,3.1,2.81,5.51,1.07a51.57,51.57,0,0,0,6.3-5,1.72,1.72,0,0,1,1.19-.68h0l.23-.35c2.33-4.89,4.67-9.77,7-14.68a2.07,2.07,0,0,1,.82-1c.22-.25.39-.12.45-.3"/><text class="cls-14" transform="translate(82.53 209.76)">FC</text></svg>