<svg id="Layer_1" data-name="Layer 1" xmlns="http://www.w3.org/2000/svg" viewBox="0 0 216 216"><defs><style>.cls-1{fill:#485c84;}.cls-2{fill:#5c3a31;}.cls-3{fill:#2b3a51;}.cls-4{fill:#1a1411;}.cls-5{fill:#1a2223;}.cls-6{fill:#2e1915;}.cls-7{fill:#dcdcdb;}.cls-8{fill:#39221d;}.cls-9{fill:#fedfb8;}.cls-10,.cls-15{fill:#231f20;}.cls-11{fill:#d9cd86;}.cls-12{fill:#969288;}.cls-13{fill:#d1c682;}.cls-14{fill:#fff;}.cls-15{font-size:37.92px;font-family:Montserrat-ExtraBold, Montserrat;font-weight:800;}</style></defs><path class="cls-1" d="M183.44,135.37c7.9,3.59,13.35,9.26,15.17,18,.07.31-.09.73.39.86v3.91a204.94,204.94,0,0,1-39.09,13.29,237.2,237.2,0,0,1-42.62,5.45,5.53,5.53,0,0,1-.7-.07c.08-.66.62-1,1-1.39,1.68-1.65,3.38-3.28,5.14-4.86,3.38-3,6.48-6.37,9.87-9.39,2.47-2.2,4.69-4.66,7.21-6.79,1.89-1.59,1.94-1.61.7-3.72s-2.39-4.33-3.59-6.5c-.44-.78-.49-1.21.63-1.38,2.43-.37,4.84-.91,7.27-1.33,1.07-.18,1.84-.38,1.31-1.79a16.68,16.68,0,0,1-.64-2.92c-.76-4-1.86-7.88-2.29-11.92l3.21.77c0,.65,0,1.3,0,2,0,4,.84,5.26,4.69,6.4,8.06,2.39,16.29,4.1,24.48,6,3.69.86,5.93-.49,7.43-4A3,3,0,0,1,183.44,135.37ZM154,163.46c2.48,0,5,0,7.44,0,3.59,0,3,.59,3.16-3.23,0-1.46-.47-1.78-1.83-1.76-5.31.06-10.63,0-15.94,0-3.7,0-3.11-.65-3.25,3.31,0,1.36.45,1.71,1.74,1.67C148.19,163.4,151.08,163.46,154,163.46Z"/><path class="cls-2" d="M127.2,122.92c-.66,1.16-1.92,1.51-3,2.14a69.12,69.12,0,0,1-15,7.16,3,3,0,0,1-2,.14,73.83,73.83,0,0,1-22.69-12.45,2.52,2.52,0,0,1-1-2.26c0-3-.24-6,.09-8.87.35-3.17-1-5.34-3-7.46-1.5-1.58-2.74-3.4-4.17-5C73.54,93,73,88.87,72.6,84.75a2.91,2.91,0,0,0-1.34-2.45c-4.29-2.93-6.57-7.19-7.52-12.17a7,7,0,0,1,6-7.9c3.4-.09,4.42,2.34,5.24,5a9.22,9.22,0,0,1,.15,1.41A1.4,1.4,0,0,0,76.63,70c1-.07.94-.89.87-1.62-.17-1.83-.49-3.64-.53-5.46-.07-2.69.09-5.43,2.21-7.4A4.56,4.56,0,0,0,80.8,52c9.28,3.09,18.83,4.06,28.57,3.92,8.66-.12,17.16-1,25.34-4.06.68,0,.67.54.71,1a2.4,2.4,0,0,0,.63,1.79c3.2,2.49,3.25,6,3,9.49-.09,1.53-.31,3.06-.46,4.58-.05.58.09,1.11.71,1.26a1.24,1.24,0,0,0,1.47-.71,3.39,3.39,0,0,0,.27-1.19c.45-3.56,2-5.22,5.36-5.84,4,1.56,6.16,4.46,5.63,7.71a17.77,17.77,0,0,1-4,8.56,9.85,9.85,0,0,1-3,3c-1.9.93-2.13,2.75-2.16,4.45-.1,5.37-2.74,9.48-6,13.41-1.43,1.7-3.29,3.06-4.28,5.13-.41.33-.85.63-1.22,1a60.05,60.05,0,0,1-11.54,9,23,23,0,0,1-13.7,3.4c-6-.55-11-3.38-15.64-7-1.86-1.43-3.36-3.3-5.5-4.37a.7.7,0,0,0-.4-.67.75.75,0,0,0-.06-.13s-.06,0-.1,0l.16.15c.1.3.21.41.32.74A14,14,0,0,0,86.11,109a46.12,46.12,0,0,0,9,10.41c6.89,5.64,14.57,7.88,23.4,6.22C121.51,125.08,124.26,123.75,127.2,122.92Z"/><path class="cls-1" d="M67.3,41.73a27.94,27.94,0,0,1-5.82-7.33c-2.91-5.71-1.91-10.76,3-14.9A52.93,52.93,0,0,1,80.84,9.81c19.84-7.09,39.49-6.67,58.79,2a50.35,50.35,0,0,1,11.69,7.62c4.8,4.07,5.8,9.16,3,14.76a26.8,26.8,0,0,1-6.07,7.57,127.38,127.38,0,0,0-21.75-2.67c-9.22-.33-18.43-.32-27.65-.22a159.41,159.41,0,0,0-21.73,1.25C73.81,40.65,70.55,41.2,67.3,41.73Zm40.59-13.15A5.2,5.2,0,0,0,113,23.34a5.36,5.36,0,0,0-5.17-5.1,5.16,5.16,0,0,0-5.15,5.22A5,5,0,0,0,107.89,28.58Z"/><path class="cls-1" d="M69.7,125.61l3.22-.79c-.63,4.9-1.85,9.68-2.89,14.5-.32,1.47-.08,2,1.45,2.15,2.28.24,4.52.7,6.78,1.1,1,.18,1.59.53.88,1.74-1.39,2.33-2.64,4.74-4,7.12-.42.76-.73,1.43.14,2.18,3.81,3.34,7.38,7,11.14,10.35,2.67,2.4,5.11,5,7.87,7.36a24.71,24.71,0,0,1,5.22,5.48c-5.56,0-11.1-.46-16.61-1a214.86,214.86,0,0,1-38-7.3,202.69,202.69,0,0,1-26.67-9.88,1.63,1.63,0,0,1-1.12-1.86c.49-8.44,4.57-14.72,11.57-19.23a17.47,17.47,0,0,1,4-2.17c1.77,4.31,4.21,5.53,8.81,4.41,1.65-.4,3.32-.74,5-1.16,6.08-1.54,12.26-2.72,18.25-4.59,4-1.25,4.94-2.61,4.93-6.79C69.71,126.67,69.71,126.14,69.7,125.61ZM62,159.91c-.4.24-.82.46-1.21.73a4.84,4.84,0,0,0-1.93,5.12,5,5,0,0,0,4.28,3.69,5,5,0,0,0,4.77-2.71c1.29-2.55.25-5.08-2.79-6.84,1.26-1,2.52-1.92,3.77-2.89A2.26,2.26,0,0,0,70,155.15c0-2.24,0-4.48,0-6.72,0-.9-.37-1.26-1.27-1.26-3.42,0-6.84,0-10.26,0-1.06,0-1.29.46-1.27,1.39,0,2.07.08,4.13,0,6.19a2.53,2.53,0,0,0,1.3,2.46C59.72,158,60.82,159,62,159.91Z"/><path class="cls-3" d="M143.23,124.81c.43,4,1.53,7.95,2.29,11.92a16.68,16.68,0,0,0,.64,2.92c.53,1.41-.24,1.61-1.31,1.79-2.43.42-4.84,1-7.27,1.33-1.12.17-1.07.6-.63,1.38,1.2,2.17,2.34,4.37,3.59,6.5s1.19,2.13-.7,3.72c-2.52,2.13-4.74,4.59-7.21,6.79-3.39,3-6.49,6.36-9.87,9.39-1.76,1.58-3.46,3.21-5.14,4.86-.41.41-1,.73-1,1.39a56.68,56.68,0,0,1-7.82.1c1.2-2.61,2.46-5.2,3.58-7.86.83-2,2.09-3.82,2.51-6,1.24-1.46,1.77-3.28,2.57-5,3.06-6.49,6.07-13,9.1-19.5h0l.24-.34c2.32-4.89,4.66-9.78,7-14.68.46-1,.88-1.46,2.1-1C138.25,123.39,140.76,124.06,143.23,124.81Z"/><path class="cls-3" d="M99.56,176.8a24.71,24.71,0,0,0-5.22-5.48c-2.76-2.32-5.2-5-7.87-7.36-3.76-3.39-7.33-7-11.14-10.35-.87-.75-.56-1.42-.14-2.18,1.31-2.38,2.56-4.79,4-7.12.71-1.21.11-1.56-.88-1.74-2.26-.4-4.5-.86-6.78-1.1-1.53-.16-1.77-.68-1.45-2.15,1-4.82,2.26-9.6,2.89-14.5,2.58-1,5.33-1.34,8-2.13,1-.29,1.06.48,1.32,1,2.36,4.86,4.8,9.68,7.15,14.54.1.21.1.54.22.73,1.31,3.47,3.07,6.72,4.68,10,2.21,4.59,4.18,9.29,6.71,13.72.51,1.25,1,2.54,1.54,3.76,1.69,3.44,3.41,6.87,4.88,10.42A55.16,55.16,0,0,1,99.56,176.8Z"/><path class="cls-3" d="M67.3,41.73c3.25-.53,6.51-1.08,9.77-1.56A159.41,159.41,0,0,1,98.8,38.92c9.22-.1,18.43-.11,27.65.22a127.38,127.38,0,0,1,21.75,2.67c.26,1.6-.55,2.82-1.42,4l-2.14-.2c-9.79-.8-19.57-1.62-29.39-1.88a391.54,391.54,0,0,0-44.12,1.86l-1.83.28A4.63,4.63,0,0,1,67.3,41.73Z"/><path class="cls-4" d="M107.38,176.9c-1.47-3.55-3.19-7-4.88-10.42-.59-1.22-1-2.51-1.54-3.76,1-5,1.79-9.95,2.92-14.87.44-1.88,0-3-1.54-3.92l5.68-11c2.11,3.43,3.3,7.14,5.51,10.28a1.14,1.14,0,0,1-.61,1c-1.28.82-1.37,1.84-1.06,3.29,1.1,5.16,2,10.35,3,15.53-.42,2.17-1.68,4-2.51,6-1.12,2.66-2.38,5.25-3.58,7.86Z"/><path class="cls-5" d="M183.44,135.37a3,3,0,0,0-.41.55c-1.5,3.52-3.74,4.87-7.43,4-8.19-1.9-16.42-3.61-24.48-6-3.85-1.14-4.69-2.41-4.69-6.4,0-.65,0-1.3,0-2,7,1.67,14,3.29,21,5,4.56,1.13,9.24,1.79,13.61,3.61A7.78,7.78,0,0,1,183.44,135.37Zm-29.47-6a1.41,1.41,0,1,0,.14,2.82,1.28,1.28,0,0,0,1.27-1.39A1.3,1.3,0,0,0,154,129.34Zm20.54,6.11A1.34,1.34,0,0,0,173,134.1a1.32,1.32,0,0,0-1.33,1.52,1.28,1.28,0,0,0,1.39,1.26A1.32,1.32,0,0,0,174.51,135.45Zm-11-3.89c-.82.18-1.44.65-1.39,1.54a1.3,1.3,0,0,0,1.42,1.28,1.24,1.24,0,0,0,1.37-1.46C164.9,132.07,164.34,131.7,163.54,131.56Z"/><path class="cls-5" d="M69.7,125.61c0,.53,0,1.06,0,1.59,0,4.18-.91,5.54-4.93,6.79-6,1.87-12.17,3-18.25,4.59-1.65.42-3.32.76-5,1.16-4.6,1.12-7-.1-8.81-4.41,3.51-2,7.44-2.72,11.31-3.65,8.32-2,16.63-4,25-6A3.94,3.94,0,0,1,69.7,125.61Zm-6.16,5.14c-.16-.87-.58-1.45-1.52-1.4a1.41,1.41,0,0,0,.07,2.82C63,132.18,63.41,131.56,63.54,130.75ZM54,133c-.18-.87-.66-1.47-1.55-1.42A1.3,1.3,0,0,0,51.16,133a1.25,1.25,0,0,0,1.48,1.35C53.5,134.34,53.86,133.78,54,133Zm-9.53,2.44a1.43,1.43,0,0,0-1.58-1.36,1.3,1.3,0,0,0-1.25,1.45A1.22,1.22,0,0,0,43,136.87C43.92,136.88,44.35,136.32,44.47,135.46Z"/><path class="cls-6" d="M144.64,45.63l2.14.2a58.35,58.35,0,0,1-.17,14.82l-.18,1.58c-3.39.62-4.91,2.28-5.36,5.84a3.39,3.39,0,0,1-.27,1.19,1.24,1.24,0,0,1-1.47.71c-.62-.15-.76-.68-.71-1.26.15-1.52.37-3,.46-4.58.22-3.54.17-7-3-9.49a2.4,2.4,0,0,1-.63-1.79c0-.47,0-1-.71-1a26.62,26.62,0,0,0,5.73-2.65C142,48.25,143.89,47.57,144.64,45.63Z"/><path class="cls-6" d="M69.3,45.89l1.83-.28c-.51.66-.11,1,.41,1.39,2.77,2.26,6.08,3.49,9.26,5a4.56,4.56,0,0,1-1.62,3.53c-2.12,2-2.28,4.71-2.21,7.4,0,1.82.36,3.63.53,5.46.07.73.1,1.55-.87,1.62A1.4,1.4,0,0,1,75.1,68.6,9.22,9.22,0,0,0,75,67.19c-.82-2.62-1.84-5-5.24-5A66.69,66.69,0,0,1,69.3,45.89Z"/><path class="cls-7" d="M114.86,163.05c-1-5.18-1.9-10.37-3-15.53-.31-1.45-.22-2.47,1.06-3.29a1.14,1.14,0,0,0,.61-1c1.61,2.47,3.1,2.8,5.51,1.07a53.55,53.55,0,0,0,6.3-5,1.72,1.72,0,0,1,1.19-.68c-3,6.5-6,13-9.1,19.5C116.63,159.77,116.1,161.59,114.86,163.05Z"/><path class="cls-7" d="M102.34,143.93c1.57.9,2,2,1.54,3.92-1.13,4.92-2,9.91-2.92,14.87-2.53-4.43-4.5-9.13-6.71-13.72-1.61-3.32-3.37-6.57-4.68-10,1.62-.12,2.27,1.36,3.28,2.14,1.25,1,2.54,1.89,3.78,2.87C99.05,145.89,100,145.85,102.34,143.93Z"/><path class="cls-8" d="M130.5,120.62a8.42,8.42,0,0,0-1.49,1c-.27.22-.49.38-.71.57h0a6.13,6.13,0,0,1-1.07.69h0c-2.94.82-5.69,2.15-8.73,2.72-8.84,1.65-16.52-.59-23.41-6.22A46.29,46.29,0,0,1,86.12,109,13.32,13.32,0,0,1,85,106.64c-.19-.41-.38-.66-.51-.92a1,1,0,0,1,.43.35,2.53,2.53,0,0,0,.82.84c1.8,1.1,3.17,2.76,4.83,4,4.67,3.57,9.69,6.4,15.64,7a22.94,22.94,0,0,0,13.7-3.39,59.71,59.71,0,0,0,11.54-9c.38-.36.81-.66,1.23-1,0,4-.12,7.92,0,11.86C132.76,118.3,132.25,119.68,130.5,120.62Z"/><path class="cls-9" d="M128.3,122.22l.39-.31Z"/><path class="cls-7" d="M126.77,138.24l-.24.34Z"/><path class="cls-3" d="M154,163.46c-2.9,0-5.79-.06-8.68,0-1.29,0-1.78-.31-1.74-1.67.14-4-.45-3.29,3.25-3.31,5.31,0,10.63,0,15.94,0,1.36,0,1.88.3,1.83,1.76-.15,3.82.43,3.18-3.16,3.23C158.94,163.48,156.46,163.46,154,163.46Z"/><path class="cls-10" d="M80.8,52c-3.18-1.49-6.49-2.72-9.26-5-.52-.43-.92-.73-.41-1.39a391.54,391.54,0,0,1,44.12-1.86c9.82.26,19.6,1.08,29.39,1.88-.75,1.94-2.62,2.62-4.2,3.56a26.62,26.62,0,0,1-5.73,2.65c-8.18,3-16.68,3.94-25.34,4.06C99.63,56,90.08,55.07,80.8,52Z"/><path class="cls-11" d="M107.89,28.58a5,5,0,0,1-5.19-5.12,5.16,5.16,0,0,1,5.15-5.22,5.36,5.36,0,0,1,5.17,5.1A5.2,5.2,0,0,1,107.89,28.58Z"/><path class="cls-12" d="M62,159.91c-1.14-.91-2.24-1.9-3.46-2.71a2.53,2.53,0,0,1-1.3-2.46c.09-2.06.06-4.12,0-6.19,0-.93.21-1.4,1.27-1.39,3.42.05,6.84,0,10.26,0,.9,0,1.28.36,1.27,1.26,0,2.24,0,4.48,0,6.72A2.26,2.26,0,0,1,68.85,157c-1.25,1-2.51,1.92-3.77,2.89Z"/><path class="cls-11" d="M62,159.91h3.12c3,1.76,4.08,4.29,2.79,6.84a5,5,0,0,1-4.77,2.71,5,5,0,0,1-4.28-3.69,4.84,4.84,0,0,1,1.93-5.12C61.14,160.37,61.56,160.15,62,159.91Z"/><path class="cls-13" d="M154,129.34a1.3,1.3,0,0,1,1.41,1.43,1.28,1.28,0,0,1-1.27,1.39,1.41,1.41,0,1,1-.14-2.82Z"/><path class="cls-13" d="M63.54,130.75c-.13.81-.54,1.43-1.45,1.42a1.41,1.41,0,0,1-.07-2.82C63,129.3,63.38,129.88,63.54,130.75Z"/><path class="cls-13" d="M54,133c-.14.76-.5,1.32-1.36,1.36A1.25,1.25,0,0,1,51.16,133a1.3,1.3,0,0,1,1.29-1.43C53.34,131.55,53.82,132.15,54,133Z"/><path class="cls-13" d="M44.47,135.46c-.12.86-.55,1.42-1.49,1.41a1.22,1.22,0,0,1-1.34-1.32,1.3,1.3,0,0,1,1.25-1.45A1.43,1.43,0,0,1,44.47,135.46Z"/><path class="cls-14" d="M132.65,117.41a5.82,5.82,0,0,1-2.22,3.25,9.57,9.57,0,0,0-1.74,1.25l-.39.31c-.42.3-.65.38-1.1.7l-.15.23a9.13,9.13,0,0,1-2.8,1.91,72,72,0,0,1-15,7.16,2.59,2.59,0,0,1-1.9.07A73.19,73.19,0,0,1,84.7,120.06a2.55,2.55,0,0,1-1.16-2.21s0-.17,0-.2c-.48-.08-.14,1.33-.62,1.24-.26,1.8-1.26,1.53-1.81,3.32,0,0-.26.49-.26.49.93-.39,1.22.72,1.47,1.24,2.32,5,4.61,9.82,7.06,14.6a4.17,4.17,0,0,0,.26.57c1.61-.12,2.37,1.37,3.38,2.14,1.25,1,2.54,1.9,3.78,2.88,2.42,1.91,3.35,1.87,5.71,0l5.68-11c2.11,3.43,3.3,7.14,5.51,10.28,1.62,2.47,3.1,2.8,5.51,1.07a53.45,53.45,0,0,0,6.31-5,1.7,1.7,0,0,1,1.18-.68h0l.24-.34c2.32-4.89,4.66-9.77,6.95-14.68a2.11,2.11,0,0,1,.81-1c.23-.25.39-.12.45-.31"/><text class="cls-15" transform="translate(74.1 211.64)">MO</text><path class="cls-13" d="M174.51,135.33a1.32,1.32,0,0,1-1.43,1.43,1.28,1.28,0,0,1-1.39-1.26A1.32,1.32,0,0,1,173,134,1.34,1.34,0,0,1,174.51,135.33Z"/><path class="cls-13" d="M163.54,131.44c.8.14,1.36.51,1.4,1.36a1.24,1.24,0,0,1-1.37,1.46,1.3,1.3,0,0,1-1.42-1.28C162.1,132.09,162.72,131.62,163.54,131.44Z"/></svg>