<svg id="Layer_1" data-name="Layer 1" xmlns="http://www.w3.org/2000/svg" viewBox="0 0 190.45 213.8"><defs><style>.cls-1{fill:#ec2027;}.cls-2{fill:#5c3931;}.cls-3{fill:#821518;}.cls-4{fill:#1b1511;}.cls-5{fill:#301b16;}.cls-6{fill:#dcdcdb;}.cls-7{fill:#3a231f;}.cls-8{fill:#fedfb8;}.cls-9{fill:#d9cd86;}.cls-10{fill:#969288;}.cls-11{fill:#d1c682;}.cls-12{fill:#fff;}.cls-13{font-size:25.75px;fill:#231f20;font-family:Montserrat-ExtraBold, Montserrat;font-weight:800;}.cls-14{letter-spacing:-0.01em;}</style></defs><path class="cls-1" d="M181.29,134c7.9,3.59,13.36,9.25,15.18,18,.06.32-.1.74.38.87v3.91A205.63,205.63,0,0,1,157.76,170a236.29,236.29,0,0,1-42.62,5.44,5.51,5.51,0,0,1-.7-.06c.08-.66.62-1,1-1.39,1.68-1.66,3.38-3.29,5.14-4.86,3.38-3,6.49-6.37,9.88-9.39,2.47-2.21,4.68-4.67,7.21-6.8,1.88-1.59,1.93-1.6.69-3.71s-2.38-4.34-3.59-6.5c-.43-.78-.49-1.22.63-1.39,2.44-.37,4.84-.9,7.27-1.32,1.07-.18,1.84-.39,1.31-1.79a16.68,16.68,0,0,1-.64-2.92c-.75-4-1.86-7.88-2.29-11.92l3.21.76c0,.65,0,1.3,0,2,0,4,.84,5.26,4.69,6.41,8.06,2.38,16.3,4.1,24.48,6,3.7.86,5.93-.5,7.44-4A2.51,2.51,0,0,1,181.29,134Zm-29.46,28.08c2.48,0,5,0,7.44,0,3.59,0,3,.59,3.16-3.23.06-1.46-.47-1.78-1.82-1.77-5.32.07-10.63,0-16,0-3.7,0-3.11-.65-3.24,3.31,0,1.37.44,1.72,1.73,1.68C146,162,148.94,162.07,151.83,162.07Z" transform="translate(-12.86 -3.49)"/><path class="cls-2" d="M125.05,121.53c-.66,1.16-1.92,1.51-2.94,2.15a69.89,69.89,0,0,1-15,7.16,3.05,3.05,0,0,1-2,.13,73.62,73.62,0,0,1-22.69-12.45,2.51,2.51,0,0,1-1-2.26c.05-3-.24-5.94.09-8.86.36-3.18-1-5.35-3-7.47-1.5-1.57-2.74-3.39-4.17-5-2.88-3.32-3.44-7.41-3.83-11.53a2.88,2.88,0,0,0-1.34-2.45c-4.29-2.93-6.56-7.2-7.52-12.17a7,7,0,0,1,6-7.91c3.4-.09,4.42,2.35,5.24,5a8,8,0,0,1,.15,1.4,1.41,1.41,0,0,0,1.53,1.4c1-.07.94-.9.87-1.63-.17-1.82-.48-3.64-.53-5.46-.07-2.68.1-5.42,2.22-7.39a4.58,4.58,0,0,0,1.61-3.54c9.28,3.1,18.83,4.06,28.57,3.93,8.67-.12,17.17-1,25.35-4.06.67,0,.66.53.7,1a2.41,2.41,0,0,0,.63,1.8c3.2,2.48,3.25,6,3,9.49-.09,1.53-.31,3-.45,4.58-.06.57.08,1.1.71,1.26a1.26,1.26,0,0,0,1.47-.72,3.56,3.56,0,0,0,.26-1.19c.45-3.55,2-5.22,5.36-5.84,4,1.56,6.16,4.46,5.64,7.72a17.87,17.87,0,0,1-4,8.56c-.89,1.08-1.65,2.35-3,3-1.9.94-2.13,2.75-2.16,4.46-.1,5.37-2.74,9.48-6,13.41-1.43,1.7-3.29,3.06-4.27,5.12-.42.33-.85.63-1.23,1a59.71,59.71,0,0,1-11.54,9,22.94,22.94,0,0,1-13.7,3.39c-6-.55-11-3.38-15.64-7-1.86-1.43-3.36-3.3-5.5-4.37a.69.69,0,0,0-.4-.67.52.52,0,0,0-.06-.13.15.15,0,0,0-.1,0l.16.15c.1.29.22.41.33.73A13.72,13.72,0,0,0,84,107.63,46.29,46.29,0,0,0,92.91,118c6.89,5.63,14.57,7.87,23.41,6.22C119.36,123.69,122.11,122.36,125.05,121.53Z" transform="translate(-12.86 -3.49)"/><path d="M65.15,40.34A27.65,27.65,0,0,1,59.34,33c-2.92-5.71-1.91-10.76,3-14.91A53,53,0,0,1,78.69,8.43c19.85-7.09,39.49-6.67,58.79,2.05a50,50,0,0,1,11.7,7.62c4.8,4.07,5.8,9.16,2.94,14.76a26.59,26.59,0,0,1-6.07,7.56,127.24,127.24,0,0,0-21.75-2.66c-9.22-.33-18.43-.32-27.65-.22a159.4,159.4,0,0,0-21.73,1.24C71.66,39.27,68.41,39.82,65.15,40.34Zm40.59-13.15A5.18,5.18,0,0,0,110.87,22a5.35,5.35,0,0,0-5.17-5.09,5.16,5.16,0,0,0-5.15,5.22A5,5,0,0,0,105.74,27.19Z" transform="translate(-12.86 -3.49)"/><path class="cls-1" d="M67.56,124.22l3.21-.78c-.63,4.9-1.85,9.68-2.89,14.49-.32,1.48-.08,2,1.46,2.16,2.27.24,4.52.69,6.77,1.1,1,.18,1.59.53.88,1.74-1.39,2.33-2.63,4.74-3.95,7.11-.42.76-.72,1.43.14,2.19,3.81,3.34,7.38,7,11.14,10.34,2.68,2.41,5.12,5.05,7.87,7.37a24.71,24.71,0,0,1,5.22,5.48c-5.56,0-11.09-.46-16.61-1a215.76,215.76,0,0,1-38-7.3,204.66,204.66,0,0,1-26.67-9.88A1.61,1.61,0,0,1,15,155.35c.49-8.45,4.56-14.72,11.56-19.24a17.82,17.82,0,0,1,4-2.16c1.77,4.3,4.21,5.52,8.81,4.41,1.66-.4,3.32-.74,5-1.16,6.08-1.55,12.26-2.72,18.26-4.59,4-1.25,4.93-2.62,4.93-6.8C67.56,125.28,67.56,124.75,67.56,124.22Zm-7.74,34.31a13.39,13.39,0,0,0-1.21.73,4.81,4.81,0,0,0-1.94,5.12A5.05,5.05,0,0,0,61,168.06a4.93,4.93,0,0,0,4.77-2.7c1.29-2.56.26-5.09-2.79-6.85q1.89-1.44,3.77-2.89a2.25,2.25,0,0,0,1.17-1.85c0-2.24,0-4.48,0-6.72,0-.91-.38-1.27-1.28-1.26-3.42,0-6.83,0-10.25,0-1.06,0-1.29.46-1.27,1.39,0,2.06.07,4.13,0,6.19a2.53,2.53,0,0,0,1.31,2.46C57.57,156.63,58.67,157.62,59.82,158.53Z" transform="translate(-12.86 -3.49)"/><path class="cls-3" d="M141.08,123.43c.43,4,1.54,7.94,2.29,11.92a16.68,16.68,0,0,0,.64,2.92c.53,1.4-.24,1.61-1.31,1.79-2.43.42-4.83.95-7.27,1.32-1.12.17-1.06.61-.63,1.39,1.21,2.16,2.34,4.37,3.59,6.5s1.19,2.12-.69,3.71c-2.53,2.13-4.74,4.59-7.21,6.8-3.39,3-6.5,6.35-9.88,9.39-1.76,1.57-3.46,3.2-5.14,4.86-.41.4-1,.73-1,1.39a56.68,56.68,0,0,1-7.82.1c1.2-2.62,2.46-5.21,3.58-7.86.84-2,2.09-3.82,2.51-6,1.24-1.45,1.78-3.27,2.57-5,3.07-6.48,6.07-13,9.1-19.5h0l.23-.34c2.32-4.89,4.66-9.77,6.95-14.68.46-1,.89-1.45,2.1-1C136.11,122,138.61,122.68,141.08,123.43Z" transform="translate(-12.86 -3.49)"/><path class="cls-3" d="M97.41,175.42a24.71,24.71,0,0,0-5.22-5.48c-2.75-2.32-5.19-5-7.87-7.37-3.76-3.39-7.33-7-11.14-10.34-.86-.76-.56-1.43-.14-2.19,1.32-2.37,2.56-4.78,3.95-7.11.71-1.21.11-1.56-.88-1.74-2.25-.41-4.5-.86-6.77-1.1-1.54-.16-1.78-.68-1.46-2.16,1-4.81,2.26-9.59,2.89-14.49,2.58-1,5.33-1.34,8-2.14,1-.29,1.07.49,1.32,1,2.36,4.85,4.8,9.67,7.15,14.54.1.2.1.54.22.73,1.31,3.46,3.07,6.72,4.68,10,2.21,4.58,4.19,9.28,6.71,13.72.51,1.25,1,2.54,1.54,3.75,1.69,3.45,3.41,6.88,4.88,10.43A56.68,56.68,0,0,1,97.41,175.42Z" transform="translate(-12.86 -3.49)"/><path class="cls-1" d="M65.15,40.34c3.26-.52,6.51-1.07,9.77-1.56a159.4,159.4,0,0,1,21.73-1.24c9.22-.1,18.43-.11,27.65.22a127.24,127.24,0,0,1,21.75,2.66c.27,1.6-.55,2.82-1.42,4l-2.14-.2c-9.78-.8-19.57-1.62-29.38-1.87A387.07,387.07,0,0,0,69,44.23l-1.83.27A4.62,4.62,0,0,1,65.15,40.34Z" transform="translate(-12.86 -3.49)"/><path class="cls-4" d="M105.23,175.52c-1.47-3.55-3.19-7-4.88-10.43-.59-1.21-1-2.5-1.54-3.75,1-5,1.79-10,2.93-14.87.43-1.88,0-3-1.55-3.92l5.68-11c2.11,3.42,3.3,7.13,5.52,10.27a1.17,1.17,0,0,1-.62,1c-1.27.82-1.37,1.85-1.06,3.3,1.1,5.15,2,10.35,3,15.52-.42,2.18-1.67,4-2.51,6-1.12,2.65-2.38,5.24-3.58,7.86Z" transform="translate(-12.86 -3.49)"/><path class="cls-3" d="M181.29,134a2.51,2.51,0,0,0-.4.54c-1.51,3.52-3.74,4.88-7.44,4-8.18-1.9-16.42-3.62-24.48-6-3.85-1.15-4.69-2.42-4.69-6.41,0-.65,0-1.3,0-2,7,1.67,14.05,3.3,21.05,5,4.55,1.13,9.23,1.78,13.6,3.61A7.56,7.56,0,0,1,181.29,134Zm-29.47-6a1.41,1.41,0,1,0,.14,2.81,1.28,1.28,0,0,0,1.27-1.39A1.29,1.29,0,0,0,151.82,128Zm20.54,6.11a1.33,1.33,0,0,0-1.49-1.35,1.31,1.31,0,0,0-1.33,1.51,1.27,1.27,0,0,0,1.39,1.26A1.31,1.31,0,0,0,172.36,134.07Zm-11-3.9c-.81.18-1.43.65-1.38,1.54a1.29,1.29,0,0,0,1.41,1.29,1.24,1.24,0,0,0,1.37-1.46C162.76,130.68,162.2,130.32,161.39,130.17Z" transform="translate(-12.86 -3.49)"/><path class="cls-3" d="M67.56,124.22c0,.53,0,1.06,0,1.59,0,4.18-.92,5.55-4.93,6.8-6,1.87-12.18,3-18.26,4.59-1.65.42-3.31.76-5,1.16-4.6,1.11-7-.11-8.81-4.41,3.51-2,7.44-2.73,11.31-3.65,8.32-2,16.64-4,25-6A3.94,3.94,0,0,1,67.56,124.22Zm-6.17,5.14c-.16-.87-.58-1.44-1.51-1.39a1.29,1.29,0,0,0-1.32,1.51,1.3,1.3,0,0,0,1.38,1.3C60.85,130.79,61.26,130.18,61.39,129.36Zm-9.54,2.27c-.17-.87-.65-1.47-1.55-1.41A1.3,1.3,0,0,0,49,131.64,1.25,1.25,0,0,0,50.49,133C51.35,133,51.72,132.4,51.85,131.63Zm-9.52,2.45a1.43,1.43,0,0,0-1.59-1.36,1.29,1.29,0,0,0-1.25,1.45,1.24,1.24,0,0,0,1.35,1.32A1.4,1.4,0,0,0,42.33,134.08Z" transform="translate(-12.86 -3.49)"/><path class="cls-5" d="M142.49,44.24l2.14.2a58.34,58.34,0,0,1-.17,14.82l-.18,1.58c-3.39.62-4.91,2.29-5.36,5.84a3.56,3.56,0,0,1-.26,1.19,1.26,1.26,0,0,1-1.47.72c-.63-.16-.77-.69-.71-1.26.14-1.53.36-3,.45-4.58.22-3.54.17-7-3-9.49a2.41,2.41,0,0,1-.63-1.8c0-.47,0-1-.7-1a27,27,0,0,0,5.72-2.65C139.87,46.87,141.74,46.19,142.49,44.24Z" transform="translate(-12.86 -3.49)"/><path class="cls-5" d="M67.15,44.5,69,44.23c-.51.66-.11,1,.41,1.39,2.77,2.26,6.09,3.48,9.26,5A4.58,4.58,0,0,1,77,54.13c-2.12,2-2.29,4.71-2.22,7.39.05,1.82.36,3.64.53,5.46.07.73.1,1.56-.87,1.63A1.41,1.41,0,0,1,73,67.21a8,8,0,0,0-.15-1.4c-.82-2.62-1.84-5.06-5.24-5A66.68,66.68,0,0,1,67.15,44.5Z" transform="translate(-12.86 -3.49)"/><path class="cls-6" d="M112.71,161.66c-1-5.17-1.9-10.37-3-15.52-.31-1.45-.21-2.48,1.06-3.3a1.17,1.17,0,0,0,.62-1c1.61,2.47,3.09,2.81,5.5,1.07a52.44,52.44,0,0,0,6.31-5,1.7,1.7,0,0,1,1.18-.68c-3,6.51-6,13-9.1,19.5C114.49,158.39,114,160.21,112.71,161.66Z" transform="translate(-12.86 -3.49)"/><path class="cls-6" d="M100.19,142.55c1.57.89,2,2,1.55,3.92-1.14,4.92-2,9.91-2.93,14.87-2.52-4.44-4.5-9.14-6.71-13.72-1.61-3.32-3.37-6.58-4.68-10,1.62-.12,2.27,1.36,3.28,2.14,1.25,1,2.54,1.89,3.78,2.87C96.91,144.5,97.83,144.46,100.19,142.55Z" transform="translate(-12.86 -3.49)"/><path class="cls-7" d="M128.35,119.24a8.42,8.42,0,0,0-1.49,1c-.27.22-.49.38-.71.57h0a6.13,6.13,0,0,1-1.07.69h0c-2.94.82-5.69,2.15-8.73,2.72-8.84,1.65-16.52-.59-23.41-6.22A46.29,46.29,0,0,1,84,107.63a13.32,13.32,0,0,1-1.16-2.37c-.19-.41-.38-.66-.51-.92a1,1,0,0,1,.43.35,2.53,2.53,0,0,0,.82.84c1.8,1.1,3.17,2.76,4.83,4,4.67,3.57,9.69,6.4,15.64,7a22.94,22.94,0,0,0,13.7-3.39,59.71,59.71,0,0,0,11.54-9c.38-.36.81-.66,1.23-1,0,4-.12,7.92,0,11.86C130.61,116.92,130.1,118.3,128.35,119.24Z" transform="translate(-12.86 -3.49)"/><path class="cls-8" d="M126.15,120.84l.4-.32Z" transform="translate(-12.86 -3.49)"/><path class="cls-6" d="M124.62,136.85l-.23.34Z" transform="translate(-12.86 -3.49)"/><path class="cls-3" d="M151.83,162.07c-2.89,0-5.79,0-8.68,0-1.29,0-1.78-.31-1.73-1.68.13-4-.46-3.28,3.24-3.31,5.32,0,10.63,0,16,0,1.35,0,1.88.31,1.82,1.77-.15,3.82.43,3.18-3.16,3.23C156.79,162.1,154.31,162.07,151.83,162.07Z" transform="translate(-12.86 -3.49)"/><path d="M78.65,50.59c-3.17-1.49-6.49-2.71-9.26-5-.52-.43-.92-.73-.41-1.39a387.07,387.07,0,0,1,44.13-1.86c9.81.25,19.6,1.07,29.38,1.87-.75,1.95-2.62,2.63-4.2,3.57a27,27,0,0,1-5.72,2.65c-8.18,3-16.68,3.94-25.35,4.06C97.48,54.65,87.93,53.69,78.65,50.59Z" transform="translate(-12.86 -3.49)"/><path class="cls-9" d="M105.74,27.19a5,5,0,0,1-5.19-5.11,5.16,5.16,0,0,1,5.15-5.22A5.35,5.35,0,0,1,110.87,22,5.18,5.18,0,0,1,105.74,27.19Z" transform="translate(-12.86 -3.49)"/><path class="cls-10" d="M59.82,158.53c-1.15-.91-2.25-1.9-3.46-2.71a2.53,2.53,0,0,1-1.31-2.46c.09-2.06.06-4.13,0-6.19,0-.93.21-1.41,1.27-1.39,3.42.05,6.83,0,10.25,0,.9,0,1.29.35,1.28,1.26,0,2.24,0,4.48,0,6.72a2.25,2.25,0,0,1-1.17,1.85q-1.87,1.45-3.77,2.89Z" transform="translate(-12.86 -3.49)"/><path class="cls-9" d="M59.82,158.53l3.11,0c3.05,1.76,4.08,4.29,2.79,6.85a4.93,4.93,0,0,1-4.77,2.7,5.05,5.05,0,0,1-4.28-3.68,4.81,4.81,0,0,1,1.94-5.12A13.39,13.39,0,0,1,59.82,158.53Z" transform="translate(-12.86 -3.49)"/><path class="cls-11" d="M151.82,128a1.29,1.29,0,0,1,1.41,1.42,1.28,1.28,0,0,1-1.27,1.39,1.41,1.41,0,1,1-.14-2.81Z" transform="translate(-12.86 -3.49)"/><path class="cls-11" d="M172.36,134.07a1.31,1.31,0,0,1-1.43,1.42,1.27,1.27,0,0,1-1.39-1.26,1.31,1.31,0,0,1,1.33-1.51A1.33,1.33,0,0,1,172.36,134.07Z" transform="translate(-12.86 -3.49)"/><path class="cls-11" d="M161.39,130.17c.81.15,1.37.51,1.4,1.37a1.24,1.24,0,0,1-1.37,1.46,1.29,1.29,0,0,1-1.41-1.29C160,130.82,160.58,130.35,161.39,130.17Z" transform="translate(-12.86 -3.49)"/><path class="cls-11" d="M61.39,129.36c-.13.82-.54,1.43-1.45,1.42a1.3,1.3,0,0,1-1.38-1.3A1.29,1.29,0,0,1,59.88,128C60.81,127.92,61.23,128.49,61.39,129.36Z" transform="translate(-12.86 -3.49)"/><path class="cls-11" d="M51.85,131.63c-.13.77-.5,1.32-1.36,1.37A1.25,1.25,0,0,1,49,131.64a1.3,1.3,0,0,1,1.29-1.42C51.2,130.16,51.68,130.76,51.85,131.63Z" transform="translate(-12.86 -3.49)"/><path class="cls-11" d="M42.33,134.08a1.4,1.4,0,0,1-1.49,1.41,1.24,1.24,0,0,1-1.35-1.32,1.29,1.29,0,0,1,1.25-1.45A1.43,1.43,0,0,1,42.33,134.08Z" transform="translate(-12.86 -3.49)"/><path class="cls-12" d="M130.5,116a5.76,5.76,0,0,1-2.22,3.24,9.64,9.64,0,0,0-1.73,1.25l-.4.32c-.42.3-.64.38-1.1.69l-.15.23a9.14,9.14,0,0,1-2.79,1.92,72.79,72.79,0,0,1-15,7.16,2.59,2.59,0,0,1-1.9.06,73,73,0,0,1-22.68-12.22,2.57,2.57,0,0,1-1.16-2.21s0-.17,0-.21c-.48-.07-.14,1.34-.61,1.24-.27,1.81-1.27,1.54-1.82,3.33,0,0-.25.49-.25.49.92-.4,1.21.72,1.46,1.24,2.32,5,4.62,9.82,7.06,14.59.1.2.14.38.26.58,1.61-.12,2.37,1.36,3.38,2.14,1.25,1,2.54,1.89,3.78,2.87,2.43,1.92,3.35,1.87,5.71,0l5.68-11c2.11,3.42,3.3,7.13,5.52,10.27,1.61,2.48,3.09,2.81,5.5,1.07a52.44,52.44,0,0,0,6.31-5,1.7,1.7,0,0,1,1.18-.68h0l.23-.35c2.32-4.89,4.66-9.77,6.95-14.68a2.11,2.11,0,0,1,.81-1c.23-.25.4-.12.46-.3" transform="translate(-12.86 -3.49)"/><text class="cls-13" transform="translate(0 201.75)">SE<tspan class="cls-14" x="34.45" y="0">C</tspan><tspan x="51.93" y="0">ONDMENT</tspan></text></svg>