<svg id="Layer_1" data-name="Layer 1" xmlns="http://www.w3.org/2000/svg" viewBox="0 0 216 216"><defs><style>.cls-1{fill:#789ccc;}.cls-2{fill:#723724;}.cls-3{fill:#47627f;}.cls-4{fill:#d9cd86;}.cls-5{fill:#1a1411;}.cls-6{fill:#1a2223;}.cls-7{fill:#512e25;}.cls-8{fill:#dcdcdb;}.cls-9{fill:#fedfb8;}.cls-10{fill:#171e1d;}.cls-11{fill:#969288;}.cls-12{fill:#d1c682;}.cls-13{fill:#fff;}.cls-14{font-size:37.92px;fill:#231f20;font-family:Montserrat-ExtraBold, Montserrat;font-weight:800;}</style></defs><path class="cls-1" d="M183.72,135.46c7.91,3.6,13.36,9.26,15.18,18,.06.31-.1.74.39.87v3.9a205,205,0,0,1-39.1,13.29A237.08,237.08,0,0,1,117.57,177a4.26,4.26,0,0,1-.7-.07c.08-.66.63-1,1-1.38,1.68-1.66,3.38-3.29,5.13-4.87,3.38-3,6.49-6.37,9.88-9.39,2.47-2.2,4.69-4.66,7.21-6.79,1.88-1.59,1.94-1.6.7-3.71s-2.39-4.34-3.59-6.5c-.44-.79-.49-1.22.63-1.39,2.43-.37,4.84-.91,7.26-1.32,1.07-.19,1.85-.39,1.31-1.79a18.72,18.72,0,0,1-.64-2.92c-.75-4-1.85-7.89-2.28-11.92l3.21.76c0,.65,0,1.3,0,2,0,4,.83,5.26,4.68,6.4,8.06,2.39,16.3,4.11,24.49,6,3.69.85,5.92-.5,7.43-4A3.34,3.34,0,0,1,183.72,135.46Zm-29.46,28.09c2.48,0,5,0,7.44,0,3.59,0,3,.59,3.16-3.22.06-1.46-.47-1.79-1.82-1.77-5.31.07-10.63,0-15.94,0-3.71,0-3.12-.65-3.25,3.31,0,1.37.44,1.71,1.73,1.68C148.47,163.49,151.37,163.55,154.26,163.55Z"/><path class="cls-2" d="M127.48,123c-.65,1.16-1.91,1.51-2.94,2.15a69.66,69.66,0,0,1-15,7.16,3.05,3.05,0,0,1-2,.13A73.73,73.73,0,0,1,84.82,120a2.49,2.49,0,0,1-1-2.26c0-3-.25-5.95.08-8.87.36-3.17-1-5.34-3-7.46-1.49-1.57-2.73-3.39-4.16-5-2.89-3.31-3.45-7.4-3.84-11.52a2.88,2.88,0,0,0-1.33-2.46C67.26,79.46,65,75.2,64,70.23a7,7,0,0,1,6-7.91c3.39-.09,4.42,2.34,5.23,5a9.22,9.22,0,0,1,.16,1.41,1.41,1.41,0,0,0,1.52,1.4c1-.08,1-.9.88-1.63-.18-1.82-.49-3.64-.54-5.46-.06-2.68.1-5.42,2.22-7.39a4.55,4.55,0,0,0,1.61-3.54c9.28,3.1,18.84,4.06,28.58,3.93,8.66-.13,17.16-1,25.34-4.07.68,0,.66.54.7,1a2.51,2.51,0,0,0,.63,1.8c3.21,2.48,3.25,5.94,3,9.49-.1,1.53-.31,3-.46,4.58,0,.57.08,1.1.71,1.26a1.26,1.26,0,0,0,1.47-.72,3.62,3.62,0,0,0,.26-1.19c.45-3.56,2-5.22,5.36-5.84,4,1.56,6.17,4.46,5.64,7.72a17.81,17.81,0,0,1-4,8.56c-.9,1.08-1.65,2.34-3,3-1.9.94-2.12,2.75-2.15,4.45-.11,5.37-2.75,9.49-6.05,13.41-1.42,1.71-3.28,3.06-4.27,5.13-.41.33-.85.63-1.23,1a59.51,59.51,0,0,1-11.53,9,22.92,22.92,0,0,1-13.71,3.4c-6-.55-11-3.38-15.63-7-1.86-1.42-3.36-3.3-5.5-4.36a.71.71,0,0,0-.4-.67.39.39,0,0,0-.06-.13s-.07,0-.1,0l.16.15c.1.29.21.41.32.73a13.72,13.72,0,0,0,1.16,2.37,45.82,45.82,0,0,0,8.95,10.4c6.88,5.64,14.57,7.88,23.4,6.23C121.79,125.17,124.55,123.84,127.48,123Z"/><path class="cls-1" d="M67.58,41.82a28,28,0,0,1-5.81-7.32c-2.91-5.71-1.91-10.77,3-14.91A52.71,52.71,0,0,1,81.13,9.91C101,2.82,120.61,3.23,139.91,12a50,50,0,0,1,11.7,7.61c4.8,4.08,5.8,9.17,2.95,14.77a27.08,27.08,0,0,1-6.07,7.56,128.5,128.5,0,0,0-21.76-2.67c-9.21-.32-18.43-.31-27.64-.21a159.64,159.64,0,0,0-21.74,1.24C74.09,40.75,70.84,41.3,67.58,41.82Zm40.59-13.15a5.18,5.18,0,0,0,5.13-5.24,5.35,5.35,0,0,0-5.17-5.09A5.18,5.18,0,0,0,103,23.56,5,5,0,0,0,108.17,28.67Z"/><path class="cls-1" d="M70,125.7l3.21-.78c-.63,4.89-1.84,9.68-2.89,14.49-.32,1.47-.07,2,1.46,2.15,2.27.25,4.52.7,6.77,1.11,1,.17,1.6.53.88,1.74-1.38,2.33-2.63,4.74-3.94,7.11-.42.76-.73,1.43.13,2.18,3.82,3.34,7.38,7,11.15,10.35,2.67,2.4,5.11,5,7.87,7.37a24.84,24.84,0,0,1,5.21,5.47c-5.55,0-11.09-.45-16.61-1a214.58,214.58,0,0,1-38-7.3,202.16,202.16,0,0,1-26.67-9.88,1.61,1.61,0,0,1-1.12-1.86c.49-8.44,4.57-14.71,11.56-19.23a17.85,17.85,0,0,1,4-2.16c1.77,4.3,4.22,5.52,8.82,4.41,1.65-.41,3.32-.74,5-1.16,6.08-1.55,12.25-2.72,18.25-4.59,4-1.25,4.94-2.62,4.93-6.8C70,126.76,70,126.23,70,125.7ZM62.25,160c-.41.24-.83.45-1.21.72a4.82,4.82,0,0,0-1.93,5.12,5,5,0,0,0,4.28,3.69,4.94,4.94,0,0,0,4.77-2.71c1.28-2.55.25-5.08-2.79-6.84l3.76-2.89a2.22,2.22,0,0,0,1.17-1.85q0-3.36,0-6.72c0-.91-.38-1.27-1.27-1.26-3.42,0-6.84,0-10.26,0-1.06,0-1.29.45-1.27,1.39,0,2.06.07,4.13,0,6.19a2.53,2.53,0,0,0,1.3,2.46C60,158.1,61.1,159.1,62.25,160Z"/><path class="cls-3" d="M143.52,124.91c.43,4,1.53,7.94,2.28,11.92a18.72,18.72,0,0,0,.64,2.92c.54,1.4-.24,1.6-1.31,1.79-2.42.41-4.83,1-7.26,1.32-1.12.17-1.07.6-.63,1.39,1.2,2.16,2.33,4.36,3.59,6.5s1.18,2.12-.7,3.71c-2.52,2.13-4.74,4.59-7.21,6.79-3.39,3-6.5,6.36-9.88,9.39-1.75,1.58-3.45,3.21-5.13,4.87-.41.4-1,.72-1,1.38a56.56,56.56,0,0,1-7.81.11c1.2-2.62,2.46-5.21,3.57-7.87.84-2,2.1-3.82,2.51-6,1.24-1.45,1.78-3.28,2.57-5,3.07-6.48,6.08-13,9.11-19.5h0l.23-.34c2.32-4.89,4.67-9.77,7-14.68.47-1,.89-1.45,2.11-1C138.54,123.49,141,124.16,143.52,124.91Z"/><path class="cls-3" d="M99.84,176.89a24.84,24.84,0,0,0-5.21-5.47c-2.76-2.32-5.2-5-7.87-7.37-3.77-3.39-7.33-7-11.15-10.35-.86-.75-.55-1.42-.13-2.18,1.31-2.37,2.56-4.78,3.94-7.11.72-1.21.12-1.57-.88-1.74-2.25-.41-4.5-.86-6.77-1.11-1.53-.16-1.78-.68-1.46-2.15,1-4.81,2.26-9.6,2.89-14.49,2.58-1,5.33-1.34,8-2.14,1-.29,1.06.48,1.31,1,2.37,4.86,4.8,9.68,7.16,14.54.1.21.09.54.22.74,1.3,3.46,3.06,6.71,4.67,10,2.22,4.58,4.19,9.28,6.72,13.71.5,1.26.94,2.55,1.54,3.76,1.69,3.45,3.41,6.88,4.87,10.43A55.18,55.18,0,0,1,99.84,176.89Z"/><path class="cls-4" d="M67.58,41.82c3.26-.52,6.51-1.07,9.77-1.56A159.64,159.64,0,0,1,99.09,39c9.21-.1,18.43-.11,27.64.21a128.5,128.5,0,0,1,21.76,2.67c.26,1.6-.56,2.82-1.42,4l-2.14-.2c-9.79-.8-19.57-1.62-29.39-1.87A389.19,389.19,0,0,0,71.42,45.7L69.59,46A4.62,4.62,0,0,1,67.58,41.82Z"/><path class="cls-5" d="M107.66,177c-1.46-3.55-3.18-7-4.87-10.43-.6-1.21-1-2.5-1.54-3.76,1-5,1.79-9.94,2.92-14.86.43-1.88,0-3-1.54-3.92l5.67-11c2.11,3.42,3.31,7.13,5.52,10.27a1.13,1.13,0,0,1-.62,1c-1.27.82-1.36,1.85-1,3.3,1.1,5.15,2,10.34,3,15.52-.41,2.17-1.67,4-2.51,6-1.11,2.66-2.37,5.25-3.57,7.87Z"/><path class="cls-6" d="M183.72,135.46a3.34,3.34,0,0,0-.4.55c-1.51,3.52-3.74,4.87-7.43,4-8.19-1.9-16.43-3.62-24.49-6-3.85-1.14-4.68-2.41-4.68-6.4,0-.65,0-1.3,0-2,7,1.67,14,3.29,21,5,4.55,1.14,9.24,1.79,13.61,3.62A7.59,7.59,0,0,1,183.72,135.46Zm-29.47-6a1.41,1.41,0,1,0,.15,2.82,1.29,1.29,0,0,0,1.27-1.39A1.31,1.31,0,0,0,154.25,129.43Zm20.54,6.12a1.41,1.41,0,1,0-2.82.16,1.28,1.28,0,0,0,1.4,1.26A1.31,1.31,0,0,0,174.79,135.55Zm-11-3.9c-.82.18-1.44.65-1.39,1.54a1.3,1.3,0,0,0,1.42,1.29,1.25,1.25,0,0,0,1.37-1.46C165.19,132.16,164.63,131.8,163.83,131.65Z"/><path class="cls-6" d="M70,125.7c0,.53,0,1.06,0,1.59,0,4.18-.91,5.55-4.93,6.8-6,1.87-12.17,3-18.25,4.59-1.65.42-3.32.75-5,1.16-4.6,1.11-7.05-.11-8.82-4.41,3.52-2,7.44-2.73,11.31-3.66,8.33-2,16.64-4,25-6A3.94,3.94,0,0,1,70,125.7Zm-6.17,5.14c-.16-.87-.57-1.44-1.51-1.39A1.29,1.29,0,0,0,61,131a1.31,1.31,0,0,0,1.39,1.3C63.29,132.27,63.7,131.66,63.82,130.84Zm-9.54,2.27c-.17-.87-.65-1.47-1.55-1.41a1.31,1.31,0,0,0-1.29,1.42,1.27,1.27,0,0,0,1.49,1.36C53.78,134.43,54.15,133.88,54.28,133.11Zm-9.52,2.44a1.42,1.42,0,0,0-1.59-1.35,1.29,1.29,0,0,0-1.25,1.45A1.24,1.24,0,0,0,43.27,137C44.21,137,44.64,136.41,44.76,135.55Z"/><path class="cls-7" d="M144.93,45.72l2.14.2a57.89,57.89,0,0,1-.18,14.82l-.18,1.58c-3.39.62-4.91,2.28-5.36,5.84a3.62,3.62,0,0,1-.26,1.19,1.26,1.26,0,0,1-1.47.72c-.63-.16-.76-.69-.71-1.26.15-1.53.36-3,.46-4.58.21-3.55.17-7-3-9.49a2.51,2.51,0,0,1-.63-1.8c0-.47,0-1-.7-1a27.31,27.31,0,0,0,5.73-2.64C142.3,48.34,144.17,47.66,144.93,45.72Z"/><path class="cls-7" d="M69.59,46l1.83-.28c-.52.67-.11,1,.41,1.39,2.77,2.26,6.08,3.49,9.25,5a4.55,4.55,0,0,1-1.61,3.54c-2.12,2-2.28,4.71-2.22,7.39,0,1.82.36,3.64.54,5.46.07.73.09,1.55-.88,1.63a1.41,1.41,0,0,1-1.52-1.4,9.22,9.22,0,0,0-.16-1.41c-.81-2.62-1.84-5.05-5.23-5A66.19,66.19,0,0,1,69.59,46Z"/><path class="cls-8" d="M115.14,163.14c-1-5.18-1.89-10.37-3-15.52-.31-1.45-.22-2.48,1-3.3a1.13,1.13,0,0,0,.62-1c1.61,2.47,3.1,2.81,5.51,1.07a52.34,52.34,0,0,0,6.3-5,1.72,1.72,0,0,1,1.19-.68c-3,6.5-6,13-9.11,19.5C116.92,159.86,116.38,161.69,115.14,163.14Z"/><path class="cls-8" d="M102.63,144c1.57.89,2,2,1.54,3.92-1.13,4.92-2,9.9-2.92,14.86-2.53-4.43-4.5-9.13-6.72-13.71-1.61-3.33-3.37-6.58-4.67-10,1.61-.12,2.27,1.36,3.28,2.13,1.25,1,2.53,1.9,3.77,2.88C99.34,146,100.27,145.94,102.63,144Z"/><path class="cls-7" d="M130.78,120.72a8.42,8.42,0,0,0-1.49,1c-.27.22-.49.38-.71.57h0a6.34,6.34,0,0,1-1.07.69h0c-2.94.82-5.69,2.15-8.73,2.72-8.84,1.65-16.52-.59-23.41-6.22a46.29,46.29,0,0,1-8.94-10.41,13.32,13.32,0,0,1-1.16-2.37c-.19-.41-.38-.66-.51-.92a1,1,0,0,1,.43.35A2.53,2.53,0,0,0,86,107c1.8,1.1,3.17,2.76,4.83,4,4.67,3.57,9.69,6.4,15.64,7a22.94,22.94,0,0,0,13.7-3.39,59.71,59.71,0,0,0,11.54-9c.38-.36.81-.66,1.23-1,0,4-.12,7.92,0,11.86C133,118.4,132.53,119.78,130.78,120.72Z"/><path class="cls-9" d="M128.58,122.32l.4-.32Z"/><path class="cls-8" d="M127.05,138.33l-.23.34Z"/><path class="cls-3" d="M154.26,163.55c-2.89,0-5.79-.06-8.68,0-1.29,0-1.78-.31-1.73-1.68.13-4-.46-3.28,3.25-3.31,5.31,0,10.63,0,15.94,0,1.35,0,1.88.31,1.82,1.77-.14,3.81.43,3.18-3.16,3.22C159.22,163.58,156.74,163.55,154.26,163.55Z"/><path class="cls-10" d="M81.08,52.07c-3.17-1.49-6.48-2.72-9.25-5-.52-.42-.93-.72-.41-1.39a389.19,389.19,0,0,1,44.12-1.85c9.82.25,19.6,1.07,29.39,1.87-.76,1.94-2.63,2.62-4.2,3.57A27.31,27.31,0,0,1,135,51.93c-8.18,3-16.68,3.94-25.34,4.07C99.92,56.13,90.36,55.17,81.08,52.07Z"/><path class="cls-4" d="M108.17,28.67A5,5,0,0,1,103,23.56a5.18,5.18,0,0,1,5.15-5.22,5.35,5.35,0,0,1,5.17,5.09A5.18,5.18,0,0,1,108.17,28.67Z"/><path class="cls-11" d="M62.25,160c-1.15-.91-2.24-1.91-3.46-2.71a2.53,2.53,0,0,1-1.3-2.46c.08-2.06,0-4.13,0-6.19,0-.94.21-1.41,1.27-1.39,3.42,0,6.84,0,10.26,0,.89,0,1.28.35,1.27,1.26q0,3.36,0,6.72a2.22,2.22,0,0,1-1.17,1.85L65.37,160Z"/><path class="cls-4" d="M62.25,160l3.12,0c3,1.76,4.07,4.29,2.79,6.84a4.94,4.94,0,0,1-4.77,2.71,5,5,0,0,1-4.28-3.69A4.82,4.82,0,0,1,61,160.73C61.42,160.46,61.84,160.25,62.25,160Z"/><path class="cls-12" d="M154.25,129.43a1.31,1.31,0,0,1,1.42,1.43,1.29,1.29,0,0,1-1.27,1.39,1.41,1.41,0,1,1-.15-2.82Z"/><path class="cls-12" d="M63.82,130.84c-.12.82-.53,1.43-1.44,1.42A1.31,1.31,0,0,1,61,131a1.29,1.29,0,0,1,1.32-1.51C63.25,129.4,63.66,130,63.82,130.84Z"/><path class="cls-12" d="M54.28,133.11c-.13.77-.5,1.32-1.35,1.37a1.27,1.27,0,0,1-1.49-1.36,1.31,1.31,0,0,1,1.29-1.42C53.63,131.64,54.11,132.24,54.28,133.11Z"/><path class="cls-12" d="M44.76,135.55c-.12.86-.55,1.43-1.49,1.42a1.24,1.24,0,0,1-1.35-1.32,1.29,1.29,0,0,1,1.25-1.45A1.42,1.42,0,0,1,44.76,135.55Z"/><path class="cls-13" d="M132.94,117.51a5.81,5.81,0,0,1-2.22,3.24A8.93,8.93,0,0,0,129,122l-.4.32c-.41.29-.64.37-1.1.69l-.14.23a9.48,9.48,0,0,1-2.8,1.92,73.31,73.31,0,0,1-15,7.16,2.64,2.64,0,0,1-1.9.06A73.09,73.09,0,0,1,85,120.15a2.57,2.57,0,0,1-1.16-2.21v-.2c-.49-.07-.14,1.34-.62,1.24-.27,1.81-1.27,1.53-1.81,3.33l-.26.48c.92-.39,1.22.72,1.46,1.25,2.32,5,4.62,9.81,7.06,14.59.11.2.14.38.26.57,1.62-.12,2.38,1.37,3.39,2.15,1.25,1,2.53,1.89,3.77,2.87,2.43,1.91,3.36,1.87,5.72,0,1.85-3.58,3.7-7.16,5.67-11,2.11,3.42,3.31,7.13,5.52,10.27,1.61,2.47,3.1,2.81,5.51,1.07a52.34,52.34,0,0,0,6.3-5,1.72,1.72,0,0,1,1.19-.68h0l.23-.34c2.33-4.89,4.67-9.77,7-14.68a2.07,2.07,0,0,1,.82-1c.22-.25.39-.12.45-.3"/><text class="cls-14" transform="translate(80.38 211.73)">SO</text><path class="cls-12" d="M174.79,135.43a1.31,1.31,0,0,1-1.42,1.42,1.28,1.28,0,0,1-1.4-1.26,1.41,1.41,0,1,1,2.82-.16Z"/><path class="cls-12" d="M163.83,131.53c.8.15,1.36.51,1.4,1.37a1.25,1.25,0,0,1-1.37,1.46,1.3,1.3,0,0,1-1.42-1.29C162.39,132.18,163,131.71,163.83,131.53Z"/></svg>